<svg xml:space="preserve" style="enable-background:new 0 0 1024 1024;" viewBox="0 0 1024 1024" y="0px" x="0px" xmlns:xlink="http://www.w3.org/1999/xlink" xmlns="http://www.w3.org/2000/svg" id="图层_1" version="1.1">
<style type="text/css">
	.st0{fill:#FFFFFF;}
	.st1{fill:#ADABB4;}
	.st2{fill:#C6A355;}
	.st3{fill:#EFC4AD;}
	.st4{fill:#FFFDFE;}
	.st5{fill:#384F8D;}
	.st6{fill:#AEDBEB;}
	.st7{fill:#280F12;}
	.st8{fill:#574840;}
	.st9{fill:#C34531;}
	.st10{fill:#E9715A;}
	.st11{fill:#E69F7D;}
	.st12{fill:#F2B3CE;}
	.st13{fill:#203F7D;}
	.st14{fill:#D2AC9D;}
	.st15{fill:#EDE6E9;}
	.st16{fill:#EDC968;}
	.st17{opacity:0.8;}
	.st18{fill:#E3805A;}
	.st19{fill:#FFFFFF;stroke:#000000;stroke-width:0.5;stroke-miterlimit:10;}
	.st20{fill:#4070AF;}
	.st21{fill:#E37B6F;}
	.st22{fill:#F3A596;}
	.st23{fill:#EEC4AE;}
	.st24{fill:#CAAB9E;}
	.st25{fill:#F2E7D8;}
	.st26{fill:#ACA18C;}
	.st27{clip-path:url(#SVGID_4_);}
	.st28{fill:#F2E8D7;}
	.st29{fill:#C5603F;}
	.st30{fill:#D6AA98;}
	.st31{opacity:0.31;}
	.st32{fill:#B45D42;}
	.st33{stroke:#000000;stroke-width:0.25;stroke-miterlimit:10;}
	.st34{stroke:#000000;stroke-width:0.5;stroke-miterlimit:10;}
	.st35{fill:url(#SVGID_7_);}
	.st36{opacity:0.97;fill:#FFFFFF;}
	.st37{fill:url(#SVGID_8_);}
	.st38{fill:#CF8C4C;}
	.st39{fill:#E60012;}
	.st40{fill:#9DA5AE;}
	.st41{fill:#FEF4CE;}
	.st42{fill:#6D7BBB;}
	.st43{stroke:#000000;stroke-width:2;stroke-miterlimit:10;}
</style>
<g>
	<g>
		<path d="M461.22,300.59c-38.19,30.07-58.36,77.33-55.39,125.84c0.5,8.2,2.4,15.49,1.58,20.89
			c-2.31,15.16-41.2,82.85,40.79,138.8c36.29,24.76,80.06,36.62,123.91,34c55.62-3.33,132.82-27.12,178.35-123.43
			c0,0,0.2-0.51,0.56-1.46c26.95-71.06,7.89-152.14-49.45-202.02c-42.51-36.98-104.66-61.67-188.01-23.56
			C513.55,269.65,488.3,279.27,461.22,300.59z" class="st3"></path>
	</g>
	<g>
		<path d="M459.47,297.94c-34.21,27.12-54.75,68.12-56.92,111.65c-0.27,5.5-0.26,11.03,0.07,16.53c0.36,6.13,1.82,12.23,1.81,18.37
			c-0.01,3.57-1.37,7.04-2.47,10.39c-3.47,10.52-6.66,21.08-8.05,32.11c-1.89,14.95-0.74,30.18,4.35,44.42
			c6.84,19.14,20.09,35.24,35.67,48.02c37.77,30.99,87.58,46.37,136.2,44c30.39-1.48,60.54-8.84,87.72-22.62
			c35-17.75,63.16-46.17,83.22-79.68c5.69-9.51,11.08-19.31,14.74-29.79c3.61-10.32,6.3-20.95,8.03-31.74
			c3.39-21.13,3.19-42.79-0.69-63.84c-7.71-41.81-29.74-80.03-62.34-107.37c-28.68-24.06-63.66-39.57-101.35-40.9
			c-22.79-0.8-45.59,3.53-67.03,11.1c-14.58,5.15-29.15,11.59-42.65,19.17C479.16,283.69,469.04,290.45,459.47,297.94
			c-3.2,2.5,0.26,7.85,3.49,5.32c15-11.74,31.49-22.06,49.04-29.54c18.11-7.71,36.29-14.66,55.82-17.82
			c37.97-6.15,75.9,1.75,108.38,22.28c33.36,21.08,59.39,52.67,72.86,89.83c14.21,39.18,14.26,82.65,0.51,121.97
			c-3.57,10.22-9.12,19.86-14.71,29.11c-5.45,9.03-11.5,17.69-18.17,25.86c-11.79,14.44-25.47,27.28-40.86,37.82
			c-25.49,17.46-55.09,28.19-85.63,32.41c-41.87,5.78-84.68-0.79-122.14-20.72c-34.26-18.22-66.36-47.94-68.58-88.98
			c-0.67-12.42,1.34-24.73,4.72-36.64c2.18-7.68,6.25-15.69,6.55-23.76c0.22-5.86-1.22-11.73-1.68-17.56
			c-0.41-5.25-0.46-10.55-0.28-15.82c0.36-10.6,1.91-21.16,4.53-31.44c5.1-20.08,14.52-39.09,27.59-55.17
			c6.54-8.05,13.93-15.36,22.05-21.8C466.14,300.73,462.69,295.39,459.47,297.94z"></path>
	</g>
</g>
<g>
	<g>
		<path d="M692.18,577.24c0,0,53.3,42.33,78.05,88.41c13.3,24.74,9.5,55.21-9.05,76.31l-31.58,35.91l-26.75-87.38
			l-49.78-87.57L692.18,577.24z" class="st6"></path>
	</g>
	<g>
		<path d="M689.93,579.49c7.67,6.1,14.96,12.73,22.07,19.47c15.3,14.5,29.83,30.06,42.16,47.19c6.5,9.03,13.21,18.75,17,29.29
			c3.79,10.55,4.84,22.07,2.79,33.11c-2.07,11.16-6.98,21.76-14.36,30.41c-2.46,2.88-5,5.7-7.51,8.55
			c-8.24,9.37-16.48,18.74-24.73,28.11c1.77,0.47,3.54,0.94,5.31,1.4c-8.19-26.74-16.37-53.48-24.56-80.22
			c-0.81-2.63-1.38-5.54-2.58-8.04c-1.6-3.32-3.68-6.48-5.5-9.67c-8.41-14.8-16.82-29.59-25.24-44.39
			c-6.33-11.13-12.65-22.26-18.98-33.39c-0.38,1.45-0.76,2.9-1.14,4.35c13.04-8.56,26.07-17.12,39.11-25.68
			c3.41-2.24,0.22-7.75-3.21-5.49c-13.04,8.56-26.07,17.12-39.11,25.68c-1.45,0.95-2.03,2.79-1.14,4.35
			c13.88,24.42,27.76,48.84,41.65,73.26c2.47,4.34,4.94,8.69,7.41,13.03c0.21,0.37,0.41,0.75,0.63,1.11
			c0.35,0.57-0.36-1.07-0.17-0.4c0.38,1.28,0.78,2.55,1.17,3.83c4.6,15.04,9.21,30.08,13.81,45.11c3.9,12.75,7.81,25.49,11.71,38.24
			c0.66,2.16,3.67,3.27,5.31,1.4c7.44-8.46,14.88-16.92,22.32-25.38c3.05-3.47,6.12-6.92,9.15-10.4
			c6.79-7.79,11.95-16.8,14.96-26.71c3.31-10.88,3.88-22.5,1.78-33.66c-2.15-11.48-7.62-21.67-13.86-31.41
			c-12.15-18.95-27.22-36.02-43.2-51.8c-9.1-8.99-18.55-17.79-28.57-25.76C691.25,572.47,686.73,576.94,689.93,579.49z"></path>
	</g>
</g>
<g>
	<path d="M831.76,439.79c-5.08,19.76-22.5,50.8-81.09,61.04l6.16-91c0,0,45.37-35.41,68.54-4.71
		C832.8,414.95,834.83,427.85,831.76,439.79z" class="st2"></path>
</g>
<g>
	<path d="M360.89,412.25c0,0,43.31,44.16,46.17,69.11l-1.58-59.15c0,0-1.59-41.55,5.71-50.64
		C418.49,362.47,357.94,367.86,360.89,412.25z" class="st2"></path>
</g>
<g>
	<g>
		<g>
			
				<ellipse ry="37.9" rx="32.4" cy="425.08" cx="618.53" class="st0" transform="matrix(0.0237 -0.9997 0.9997 0.0237 178.9001 1033.3473)"></ellipse>
		</g>
	</g>
	<g>
		<g>
			<path d="M587.08,426.53c0.24,13.53,13.09,24.41,28.7,24.3c15.61-0.11,28.06-11.16,27.82-24.68
				c-0.24-13.53-13.09-24.41-28.7-24.3C599.29,401.96,586.84,413.01,587.08,426.53z" class="st7"></path>
		</g>
	</g>
	<g>
		<g>
			<path d="M570.95,418.15c2.4-4.41,5.63-8.38,9.22-12.02c3.64-3.6,7.75-6.81,12.33-9.37c4.55-2.6,9.61-4.46,14.86-5.54
				c5.27-1.02,10.73-1.17,16.06-0.5c10.7,1.42,20.64,5.94,29.16,11.87c2.15,1.47,4.23,3.02,6.22,4.67c2.01,1.67,3.87,3.3,5.88,4.8
				c1.99,1.5,4.19,2.76,6.43,3.95c1.13,0.58,2.28,1.11,3.47,1.56c1.18,0.41,2.44,0.88,3.7,0.59c-1.22,0.48-2.61,0.2-3.87-0.03
				c-1.28-0.27-2.53-0.69-3.75-1.13c-2.45-0.89-4.82-2.01-7.11-3.3c-2.3-1.28-4.4-2.88-6.47-4.26c-2.11-1.4-4.21-2.78-6.38-4.06
				c-8.64-5.1-18.01-9.09-27.81-10.29c-9.76-1.33-19.77,0.43-28.64,4.72c-4.44,2.14-8.64,4.82-12.52,7.93
				C577.81,410.83,574.2,414.31,570.95,418.15z" class="st7"></path>
		</g>
	</g>
	<g>
		<g>
			<path d="M656.49,433.74c-1.42,3.98-3.72,7.67-6.48,10.99c-2.76,3.34-6.15,6.23-9.92,8.59l-1.42,0.88
				c-0.49,0.27-1,0.51-1.5,0.76c-1.01,0.48-1.99,1.04-3.04,1.45c-2.1,0.81-4.23,1.59-6.45,2.04c-2.19,0.61-4.44,0.85-6.69,1.1
				c-1.12,0.18-2.26,0.09-3.39,0.12l-3.39,0l0.22,0c-1.84,0.03-3.35-0.14-4.97-0.39c-1.58-0.27-3.15-0.58-4.68-1.02
				c-3.08-0.8-6.01-2.02-8.83-3.37c-1.38-0.74-2.77-1.45-4.07-2.31c-0.65-0.42-1.32-0.82-1.96-1.25l-1.86-1.38
				c-1.26-0.88-2.38-1.94-3.54-2.93c-1.13-1.02-2.16-2.15-3.22-3.23l3.87,2.41c1.34,0.71,2.58,1.56,3.94,2.21
				c2.64,1.42,5.37,2.61,8.13,3.67c2.77,1.05,5.62,1.81,8.46,2.44c1.42,0.32,2.87,0.52,4.3,0.68c1.4,0.13,2.94,0.24,4.14,0.2l0.22,0
				c4.13-0.04,8.27-0.2,12.25-1.15c4-0.83,7.86-2.25,11.46-4.17c3.63-1.87,7.02-4.24,10.1-7.01
				C651.25,440.32,654.04,437.2,656.49,433.74z" class="st7"></path>
		</g>
	</g>
	<g>
		<g>
			<path d="M671.54,392.1c-2.85,1.77-6.02,3-9.27,3.93c-3.25,0.96-6.62,1.51-10.01,1.8c-1.7,0.15-3.41,0.14-5.11,0.17
				c-1.71-0.13-3.42-0.11-5.1-0.42c-3.39-0.39-6.71-1.34-9.83-2.63c3.41,0.11,6.68,0.39,9.97,0.34c3.28,0.01,6.54-0.08,9.79-0.38
				c3.25-0.23,6.5-0.63,9.75-1.11C664.97,393.31,668.22,392.74,671.54,392.1z" class="st7"></path>
		</g>
	</g>
	<g>
		<g>
			<path d="M680.23,399.77c-2.55,1.56-5.4,2.6-8.31,3.36c-2.91,0.76-5.91,1.24-8.94,1.38
				c-3.02,0.17-6.07,0.02-9.07-0.48c-3-0.43-5.93-1.32-8.67-2.55c3.04,0.04,5.94,0.28,8.86,0.27c2.91,0.06,5.8-0.03,8.68-0.17
				C668.58,401.32,674.29,400.59,680.23,399.77z" class="st7"></path>
		</g>
	</g>
	<g>
		<g>
			
				<ellipse ry="7.62" rx="7.34" cy="427.2" cx="598.78" class="st0" transform="matrix(0.1439 -0.9896 0.9896 0.1439 89.8752 958.2933)"></ellipse>
		</g>
	</g>
	<g>
		<g>
			<path d="M597.77,440.71c0.04,2.03,3.47,3.65,7.68,3.62c4.2-0.03,7.58-1.7,7.54-3.73c-0.04-2.03-3.47-3.65-7.68-3.62
				C601.12,437.01,597.74,438.68,597.77,440.71z" class="st0"></path>
		</g>
	</g>
	<g>
		<g>
			<path d="M570.59,398.15c4.77-5.12,10.75-9.19,17.23-12.17c6.5-2.98,13.59-4.75,20.78-5.44
				c7.2-0.5,14.47-0.26,21.57,1.09c3.54,0.69,7.04,1.61,10.43,2.81c3.37,1.24,6.66,2.71,9.74,4.51c-6.47-3.04-13.35-5.11-20.37-6.21
				c-7.02-1.1-14.18-1.34-21.22-0.74c-7.05,0.55-13.97,2.3-20.45,5c-3.24,1.35-6.37,2.97-9.33,4.85
				C576.01,393.7,573.18,395.79,570.59,398.15z" class="st7"></path>
		</g>
	</g>
</g>
<g>
	<g>
		<g>
			
				<ellipse ry="31.04" rx="28.7" cy="425.4" cx="463.84" class="st0" transform="matrix(9.589756e-03 -1 1 9.589756e-03 34.0122 885.1402)"></ellipse>
		</g>
	</g>
	<g>
		<g>
			
				<ellipse ry="22.72" rx="21.29" cy="426.92" cx="466.03" class="st7" transform="matrix(9.589756e-03 -1 1 9.589756e-03 34.6646 888.833)"></ellipse>
		</g>
	</g>
	<g>
		<g>
			<path d="M501.91,419.35c-2.68-3.41-5.66-6.5-8.88-9.24c-3.2-2.76-6.66-5.14-10.3-7.05
				c-7.29-3.82-15.5-5.4-23.49-4.24c-8.02,1.05-15.67,4.56-22.72,9.07c-1.77,1.12-3.49,2.35-5.2,3.58c-1.69,1.23-3.4,2.64-5.27,3.76
				c-1.87,1.14-3.8,2.13-5.8,2.91c-1,0.39-2.02,0.75-3.07,0.99c-1.03,0.21-2.17,0.45-3.17,0.02c1.04,0.25,2.07-0.16,3.03-0.52
				c0.97-0.4,1.91-0.86,2.83-1.37c1.83-1.05,3.62-2.16,5.25-3.48c1.63-1.32,3.15-2.76,4.78-4.24c1.62-1.46,3.31-2.83,5.06-4.12
				c6.94-5.23,15.05-9.22,23.81-10.46c4.36-0.58,8.84-0.44,13.16,0.47c4.31,0.96,8.46,2.62,12.2,4.93
				c3.77,2.28,7.16,5.13,10.16,8.32C497.25,411.92,499.92,415.43,501.91,419.35z" class="st7"></path>
		</g>
	</g>
	<g>
		<g>
			<path d="M431.96,433c2.03,3.06,4.33,5.83,6.87,8.29c2.54,2.46,5.33,4.57,8.32,6.23c2.96,1.71,6.13,2.98,9.41,3.72
				c3.27,0.85,6.66,1,10.04,1.04l0.18,0c0.99,0.03,2.25-0.06,3.39-0.17c1.17-0.14,2.35-0.32,3.52-0.6c2.33-0.55,4.66-1.22,6.91-2.14
				c2.25-0.93,4.48-1.98,6.64-3.24c1.11-0.57,2.12-1.32,3.21-1.95l3.15-2.13c-0.86,0.95-1.69,1.95-2.62,2.85
				c-0.94,0.87-1.85,1.81-2.88,2.59l-1.52,1.22c-0.52,0.38-1.06,0.73-1.6,1.1c-1.06,0.76-2.19,1.39-3.32,2.04
				c-2.3,1.19-4.69,2.26-7.21,2.97c-1.25,0.38-2.53,0.66-3.83,0.89c-1.33,0.22-2.56,0.37-4.07,0.34l0.18,0l-2.77-0.01
				c-0.92-0.02-1.85,0.05-2.77-0.11c-1.85-0.23-3.7-0.44-5.49-0.99c-1.82-0.4-3.57-1.09-5.3-1.82c-0.86-0.37-1.66-0.86-2.5-1.29
				c-0.41-0.23-0.83-0.43-1.23-0.68l-1.17-0.78c-3.1-2.1-5.9-4.66-8.18-7.63C435.05,439.8,433.14,436.53,431.96,433z" class="st7"></path>
		</g>
	</g>
	<g>
		<g>
			<path d="M419.37,396.09c2.72,0.57,5.38,1.09,8.05,1.53c2.66,0.43,5.32,0.79,7.99,1c2.66,0.27,5.34,0.36,8.02,0.36
				c2.7,0.05,5.37-0.2,8.17-0.29c-2.55,1.14-5.26,1.98-8.03,2.31c-1.38,0.27-2.78,0.25-4.18,0.37c-1.4-0.02-2.8-0.02-4.19-0.16
				c-2.78-0.27-5.54-0.76-8.21-1.62C424.32,398.76,421.71,397.66,419.37,396.09z" class="st7"></path>
		</g>
	</g>
	<g>
		<g>
			<path d="M412.3,402.86c4.87,0.74,9.55,1.39,14.29,1.63c2.36,0.13,4.73,0.22,7.11,0.17c2.39,0.01,4.77-0.19,7.26-0.22
				c-2.24,1.08-4.64,1.87-7.09,2.25c-2.45,0.44-4.95,0.56-7.42,0.41c-2.48-0.13-4.94-0.56-7.33-1.24
				C416.74,405.17,414.4,404.25,412.3,402.86z" class="st7"></path>
		</g>
	</g>
	<g>
		<g>
			<path d="M481.18,428.6c-0.03,3.6-2.85,6.48-6.3,6.45c-3.44-0.03-6.21-2.97-6.17-6.57s2.85-6.48,6.3-6.45
				C478.45,422.06,481.21,425,481.18,428.6z" class="st0"></path>
		</g>
	</g>
	<g>
		<g>
			<path d="M474.57,439.83c-0.02,1.8-2.82,3.23-6.27,3.2c-3.44-0.03-6.22-1.52-6.2-3.31c0.02-1.8,2.82-3.23,6.27-3.2
				C471.81,436.55,474.58,438.04,474.57,439.83z" class="st0"></path>
		</g>
	</g>
	<g>
		<g>
			<path d="M502.08,401.63c-2.13-2.1-4.47-3.95-6.92-5.6c-2.44-1.67-5-3.11-7.67-4.31c-5.32-2.41-11-3.97-16.78-4.47
				c-5.78-0.55-11.64-0.35-17.38,0.61c-5.74,0.96-11.36,2.78-16.64,5.46c2.51-1.59,5.2-2.88,7.95-3.97
				c2.77-1.06,5.63-1.87,8.52-2.47c5.81-1.18,11.76-1.38,17.66-0.92c5.89,0.62,11.71,2.2,17.06,4.86
				C493.23,393.47,498.14,397.09,502.08,401.63z" class="st7"></path>
		</g>
	</g>
</g>
<g>
	<g>
		<path d="M555.04,467.91c0.07,6.64-5.53,9.25-12.46,9.32c-6.93,0.07-12.58-2.43-12.65-9.07
			c-0.07-6.64,5.47-14.91,12.41-14.98C549.27,453.11,554.97,461.26,555.04,467.91z" class="st10"></path>
	</g>
</g>
<g>
	<g>
		<g>
			
				<ellipse ry="26.03" rx="41.41" cy="494.52" cx="426.08" class="st11" transform="matrix(1 -9.969540e-03 9.969540e-03 1 -4.909 4.2724)"></ellipse>
		</g>
	</g>
	<g>
		<g>
			<g>
				<g>
					<path d="M413.76,482.13c2.05,5.05,4.09,10.09,6.14,15.14c0.29,0.72,0.59,1.45,0.88,2.17
						c0.51,1.25,2.07,2.04,3.66,1.67c1.49-0.35,2.54-1.77,2.04-3.02c-2.05-5.05-4.09-10.09-6.14-15.14
						c-0.29-0.72-0.59-1.45-0.88-2.17c-0.51-1.25-2.07-2.04-3.66-1.67C414.31,479.46,413.25,480.87,413.76,482.13L413.76,482.13z" class="st12"></path>
				</g>
			</g>
		</g>
		<g>
			<g>
				<g>
					<path d="M429.55,483.6c2.05,5.05,4.09,10.09,6.14,15.14c0.29,0.72,0.59,1.45,0.88,2.17
						c0.51,1.25,2.07,2.04,3.66,1.67c1.49-0.35,2.54-1.77,2.04-3.02c-2.05-5.05-4.09-10.09-6.14-15.14
						c-0.29-0.72-0.59-1.45-0.88-2.17c-0.51-1.25-2.07-2.04-3.66-1.67C430.1,480.93,429.04,482.34,429.55,483.6L429.55,483.6z" class="st12"></path>
				</g>
			</g>
		</g>
	</g>
</g>
<g>
	<g>
		<g>
			
				<ellipse ry="29.01" rx="46.15" cy="492.01" cx="669.47" class="st11" transform="matrix(0.9986 -0.052 0.052 0.9986 -24.6809 35.4808)"></ellipse>
		</g>
	</g>
	<g>
		<g>
			<g>
				<g>
					<path d="M655.17,478.79c2.52,5.52,5.03,11.05,7.55,16.57c0.36,0.79,0.72,1.58,1.08,2.38
						c0.62,1.37,2.4,2.18,4.15,1.69c1.64-0.46,2.75-2.09,2.13-3.46c-2.52-5.52-5.03-11.05-7.55-16.57
						c-0.36-0.79-0.72-1.59-1.08-2.38c-0.62-1.37-2.4-2.18-4.15-1.69C655.66,475.79,654.55,477.42,655.17,478.79L655.17,478.79z" class="st12"></path>
				</g>
			</g>
		</g>
		<g>
			<g>
				<g>
					<path d="M672.83,479.69c2.52,5.52,5.03,11.05,7.55,16.57c0.36,0.79,0.72,1.58,1.08,2.38
						c0.62,1.37,2.4,2.18,4.15,1.69c1.64-0.46,2.75-2.09,2.13-3.46c-2.52-5.52-5.03-11.05-7.55-16.57
						c-0.36-0.79-0.72-1.59-1.08-2.38c-0.62-1.37-2.4-2.18-4.15-1.69C673.31,476.69,672.2,478.32,672.83,479.69L672.83,479.69z" class="st12"></path>
				</g>
			</g>
		</g>
	</g>
</g>
<g>
	<path d="M555.89,438.47c-0.62-0.56-15.27-13.64-31.29-1.93l-4.5-6.16c16.92-12.38,34.2-3.79,40.97,2.48L555.89,438.47z"></path>
</g>
<g>
	<g>
		<g>
			<g>
				<path d="M379.33,443.79l-2.32-37.81c7.92-16.15,23.8-15.42,23.8-15.42c126.3-23.6,119.74-88.23,133.89-97.75
					c14.15-9.52,21.97,10.35,21.97,10.35s53.41,107.7,245.46,103.79c0,0,45.91,27.96,94.45-62.91c0,0-61.27,6.42-91.75-63.79
					c-7.44-17.13-15.86-26.1-29.42-48.08c-36.28-58.8-96.46-146.85-197.64-74.22c0,0-168.2-87.33-210.25,169.61
					c-5.83,35.61-32.89,46.15-69.33,55.32C298.21,382.88,319.7,438.11,379.33,443.79z" class="st2"></path>
			</g>
		</g>
	</g>
	<g>
		<g>
			<g>
				<g>
					<path d="M401.08,185.13c-17.63,29.03-32.44,69.79-41.68,126.44c-6.1,37.4-33.63,48.59-70.68,58.39
						c0,0,22.18,50.02,71.78,64.22l8.13-40.37c8.12-16.98,24.24-16.3,24.24-16.3c128.37-25.4,122.03-93.17,136.45-103.23
						c14.42-10.06,22.26,10.75,22.26,10.75s53.7,112.73,248.74,107.66c0,0,51.67,22.15,82.57-55.76c0,0-30.42-7.1-72.08-75.98
						c-10.97-18.15-22.49-29.2-36.14-52.19c-36.54-61.51-97.81-152.9-200.92-76.19c0,0-89.44-47.66-155.44,28.71" class="st16"></path>
				</g>
				<g>
					<path d="M398.26,183.67c-15.55,25.7-25.69,54.45-33,83.48c-2.32,9.2-4.34,18.47-6.13,27.79c-1.66,8.65-2.55,17.58-5.16,26.02
						c-3.79,12.23-11.74,22.2-22.44,29.13c-13.18,8.54-28.77,12.87-43.8,16.86c-1.55,0.41-2.68,2.52-2.01,4.02
						c9.23,20.74,25.75,39.55,44.35,52.26c9.13,6.24,19.14,10.96,29.76,14.06c1.63,0.48,3.47-0.82,3.79-2.42
						c1.96-9.72,3.92-19.44,5.88-29.17c0.72-3.56,0.98-7.74,2.25-11.16c2.46-6.64,9.78-11.68,16.44-13.29
						c1.54-0.37,3.06-0.41,4.62-0.57c4.32-0.43,8.7-1.71,12.92-2.7c10.17-2.37,20.23-5.21,30.08-8.69
						c15.21-5.38,30.06-12.29,43.35-21.52c17.32-12.03,31.03-27.96,40.03-47.03c2.71-5.73,4.88-11.71,7.61-17.43
						c0.5-1.06,1.03-2.1,1.62-3.11c0.25-0.42,0.51-0.84,0.78-1.25c0.26-0.4-0.43,0.56,0.07-0.09c0.16-0.21,0.32-0.42,0.49-0.62
						c0.28-0.32,0.56-0.62,0.85-0.92c0.18-0.18,0.79-0.63-0.02,0c0.27-0.21,0.54-0.43,0.84-0.6c2.74-1.62,5.47-2.69,8.55-1.32
						c5.14,2.29,7.07,7.73,9.31,12.07c1.34,2.59,2.87,5.08,4.46,7.52c7.71,11.86,17.24,22.6,27.59,32.21
						c17.06,15.85,36.82,28.77,57.82,38.78c29.88,14.23,62.29,22.69,95.05,26.81c21.07,2.65,42.34,3.58,63.57,3.14
						c0.56-0.01,2.42-0.26,1.12-0.4c0.04,0,0.08,0.04,0.12,0.05c0.18,0.03,0.36,0.16,0.54,0.21c0.97,0.24,1.93,0.69,2.89,0.97
						c2.7,0.79,5.47,1.32,8.26,1.63c9.5,1.06,19.18-0.2,28.01-3.9c13.67-5.72,24.38-16.28,32.64-28.37
						c5.89-8.63,10.5-18.04,14.37-27.72c0.76-1.9,0-4.06-2.14-4.57c-0.18-0.04-0.35-0.09-0.52-0.15c-0.21-0.07-0.41-0.13-0.62-0.2
						c0.05,0.02,0.58,0.25-0.28-0.11c-2.07-0.87-4.07-1.84-6.03-2.95c-8.04-4.56-15.15-10.7-21.71-17.16
						c-12.42-12.22-22.98-26.25-32.56-40.76c-5.66-8.58-10.74-17.51-16.74-25.87c-5.28-7.34-10.9-14.43-16.15-21.8
						c-9.18-12.88-16.77-26.79-25.34-40.06c-7.51-11.62-15.51-22.96-24.4-33.57c-17.31-20.66-38.5-39.45-64.8-47.33
						c-30.97-9.28-62.76,0.35-89.34,17.07c-4.48,2.82-8.83,5.84-13.08,8.98c1.07-0.06,2.14-0.11,3.21-0.17
						c-10.93-5.81-23.42-9.48-35.47-11.96c-25.77-5.32-53.11-3.96-77.43,6.58c-18,7.8-33.52,20.04-46.36,34.79
						c-2.69,3.09,2.03,7.35,4.72,4.26c20.6-23.67,48.22-39.45,79.76-41.96c20.41-1.62,41.3,1.78,60.44,8.99
						c3.87,1.46,7.77,3.01,11.42,4.96c0.96,0.51,2.31,0.49,3.21-0.17c26.11-19.32,58.16-34.09,91.23-26.8
						c26.33,5.8,47.9,23.91,65.13,43.85c8.98,10.39,17.01,21.58,24.54,33.05c8.17,12.45,15.32,25.55,23.69,37.87
						c5.23,7.71,10.95,15.05,16.5,22.53c5.71,7.69,10.7,15.74,15.81,23.83c9.81,15.54,20.68,30.53,33.33,43.9
						c7.27,7.68,15.21,14.86,24.13,20.58c3.38,2.17,7.78,5.18,11.87,5.87c0.16,0.03,0.33,0.1,0.49,0.14
						c-0.71-1.52-1.43-3.04-2.14-4.57c-10.49,26.22-29.45,55.56-60.73,56.91c-5.86,0.25-11.45-0.46-17.24-2.38
						c-0.33-0.11,0.64,0.09-0.31-0.13c-4.65-1.07-10.26-0.18-15.07-0.19c-10.79-0.02-21.58-0.4-32.35-1.21
						c-34.63-2.6-69.29-9.72-101.37-23.24c-22.49-9.48-43.74-22.06-62.2-38.07c-11.49-9.96-21.58-20.72-30.09-33.18
						c-2.01-2.93-3.92-5.94-5.62-9.07c-0.28-0.52-0.57-1.05-0.82-1.58c0.89,1.85-0.25-0.67-0.39-0.98c-1.02-2.19-2.2-4.31-3.67-6.23
						c-3.84-5.03-9.44-8.81-16.02-7.44c-3.73,0.78-7.32,2.87-9.65,5.92c-3.23,4.24-5.05,9.46-7.09,14.32
						c-7.07,16.84-16.28,31.93-29.99,44.26c-25.43,22.88-59.95,33.99-92.82,40.75c-4.4,0.91-8.71,0.94-12.95,2.8
						c-6.73,2.95-14.04,9.17-16.17,16.47c-1.1,3.77-1.58,7.84-2.36,11.69c-1.28,6.35-2.56,12.69-3.84,19.04
						c-0.64,3.19-1.28,6.38-1.93,9.56c1.26-0.81,2.53-1.61,3.79-2.42c-28.87-8.42-51.98-30.61-66.48-56.43
						c-0.85-1.52-1.67-3.06-2.45-4.62c-0.2-0.39-0.41-0.64-0.04-0.07c-0.08-0.12-0.14-0.46-0.25-0.53
						c-0.09-0.06-0.17-0.36-0.22-0.47c-0.67,1.34-1.34,2.68-2.01,4.02c25.55-6.79,54.46-15.8,66.87-41.47
						c3.23-6.67,5-13.79,6.21-21.07c1.69-10.15,3.63-20.26,5.89-30.3c3.83-17.03,8.53-33.92,14.63-50.28
						c5.58-14.99,12.3-29.57,20.58-43.26C406.03,183.08,400.36,180.18,398.26,183.67L398.26,183.67z"></path>
				</g>
			</g>
			<g>
				<g>
					<g>
						<path d="M401.08,190.35c6.72,0,6.73-10.44,0-10.44C394.37,179.91,394.35,190.35,401.08,190.35L401.08,190.35z"></path>
					</g>
				</g>
			</g>
		</g>
	</g>
</g>
<g>
	<path d="M453.98,487.9c-34.3,1.79-66.55-21.68-75.48-57.24l0,0c-10.1-40.23,13.43-80.92,52.43-90.71
		c18.92-4.76,38.61-1.61,55.44,8.84c16.79,10.43,28.73,26.89,33.62,46.35c4.89,19.46,2.14,39.61-7.74,56.74
		c-9.9,17.16-25.77,29.23-44.69,33.98C463.03,486.99,458.48,487.66,453.98,487.9z M385.9,428.8c9.08,36.15,44.88,58.41,79.8,49.65
		c16.9-4.24,31.08-15.03,39.94-30.39c8.88-15.4,11.35-33.53,6.95-51.07c-4.4-17.53-15.14-32.35-30.24-41.73
		c-15.06-9.35-32.65-12.17-49.56-7.92C397.87,356.11,376.83,392.65,385.9,428.8L385.9,428.8z"></path>
</g>
<g>
	<path d="M629.2,490.3c-34.3,1.79-66.55-21.69-75.48-57.24l0,0c-10.1-40.23,13.43-80.92,52.43-90.71
		c18.92-4.76,38.61-1.61,55.44,8.84c16.79,10.43,28.73,26.89,33.62,46.35c10.1,40.23-13.42,80.92-52.43,90.72
		C638.25,489.4,633.7,490.07,629.2,490.3z M561.12,431.2c9.08,36.14,44.88,58.42,79.8,49.65c34.93-8.77,55.96-45.31,46.89-81.46
		c-4.4-17.53-15.14-32.35-30.24-41.73c-15.06-9.35-32.65-12.17-49.56-7.92C573.08,358.51,552.05,395.05,561.12,431.2L561.12,431.2z"></path>
</g>
<g>
	<g class="st17">
		<g>
			<g>
				<path d="M744.24,191.45c-9.4-13.39-42.33-52.91-98.28-43.61c0,0,47.45,6.81,70.48,35.93
					c2.34,2.96,4.3,6.2,6.06,9.53c3.09,5.87,13.31,18.65,20.06,16.1c3.15-1.19,3.11-1.79,3.95-4.43
					C747.97,200.4,747,195.39,744.24,191.45z" class="st0"></path>
			</g>
		</g>
	</g>
	<g class="st17">
		<g>
			<g>
				<path d="M743.82,231.75c3.37,6.28,10.31,9.11,15.5,6.33c5.19-2.79,6.66-10.14,3.29-16.42
					c-3.37-6.28-10.31-9.11-15.5-6.33C741.92,218.12,740.45,225.47,743.82,231.75z" class="st0"></path>
			</g>
		</g>
	</g>
</g>
<g>
	<g>
		<path d="M756.61,405.69c0,0,37.85-18.9,52.64,12.45c16.45,34.86-5.34,63.99-62.54,54.48" class="st3"></path>
	</g>
	<g>
		<path d="M758.35,408.35c-1.33,0.66,0.26-0.11,0.73-0.31c1.15-0.5,2.31-0.95,3.49-1.38c3.67-1.32,7.48-2.38,11.34-2.93
			c10.27-1.48,21.06,0.36,28.03,8.7c6.8,8.13,10.68,21.01,9.19,31.56c-1.38,9.74-7.51,17.35-16.2,21.76
			c-14.37,7.29-32.14,6.28-47.54,3.78c-4.03-0.66-5.41,5.55-1.37,6.21c24.54,3.99,62.55,3.27,70.55-26.57
			c3.18-11.87-0.18-25.34-6.23-35.76c-6.67-11.48-18.67-17.02-31.69-16.5c-8.13,0.33-16.49,2.51-23.79,6.13
			C751.21,404.85,754.72,410.15,758.35,408.35L758.35,408.35z"></path>
	</g>
</g>
<g>
	<g>
		<path d="M762.9,440.57l-1.91-1.68c0.04-0.05,1.01-1.15,2.76-2.79c5.93-5.55,21.57-17.91,38.77-12.7l-0.74,2.44
			c-15.93-4.85-30.68,6.86-36.29,12.12C763.84,439.51,762.91,440.56,762.9,440.57z" class="st18"></path>
	</g>
	<g>
		<path d="M787.5,449.39l-2.54,0.08c-0.14-4.36-1.56-7.53-4.22-9.41c-6.09-4.31-16.81-0.96-16.92-0.92l-0.78-2.42
			c0.49-0.16,12.03-3.77,19.16,1.26C785.55,440.34,787.33,444.18,787.5,449.39z" class="st18"></path>
	</g>
</g>
<g>
	<g>
		<path d="M743.77,864.29c0,0-4.45-164.1-68.99-273.01c0,0-79.1,60.21-205.68,7.5c0,0-42.87,104.65-43.59,264.31" class="st6"></path>
	</g>
	<g>
		<path d="M746.95,864.29c-0.57-20.84-2.78-41.73-5.4-62.39c-5.77-45.5-14.86-90.81-29.4-134.37c-9-26.97-20.16-53.35-34.63-77.86
			c-0.8-1.35-2.97-2.19-4.35-1.14c-9.84,7.47-21.9,12.69-33.41,16.87c-30.05,10.91-62.48,13.9-94.18,10.45
			c-26.05-2.83-51.47-10.13-75.63-20.14c-1.72-0.71-3.33,0.8-3.91,2.22c-6,14.66-10.45,30.08-14.66,45.32
			c-11.09,40.19-18.6,81.36-23.33,122.77c-3.68,32.22-5.55,64.63-5.71,97.06c-0.02,4.09,6.34,4.1,6.36,0
			c0.28-53.2,5.12-106.39,15.06-158.66c5.8-30.49,13.18-60.81,23.13-90.23c1.65-4.89,3.33-9.79,5.29-14.57
			c-1.3,0.74-2.61,1.48-3.91,2.22c39.59,16.4,82.84,25.13,125.71,20.5c24.66-2.66,49.18-9.44,71.06-21.3
			c3.89-2.11,7.82-4.33,11.36-7.01c-1.45-0.38-2.9-0.76-4.35-1.14c25.3,42.84,40.6,91.11,51.22,139.49
			c7.99,36.42,13.32,73.47,16.12,110.65c0.53,7.07,1.03,14.17,1.22,21.26C740.7,868.37,747.06,868.39,746.95,864.29L746.95,864.29z"></path>
	</g>
</g>
<g>
	<defs>
		<rect height="83.12" width="211.42" y="639.42" x="467.79" id="SVGID_9_"></rect>
	</defs>
	<clipPath id="SVGID_2_">
		<use style="overflow:visible;" xlink:href="#SVGID_9_"></use>
	</clipPath>
</g>
<g>
	<g>
		<g>
			<path d="M582.22,621.55l52.03-33.19c7.55-4.81,17.6,0.01,19.13,9.18l6.16,37.07c1.45,8.7-5.71,16.11-14.14,14.64
				l-63-10.97L582.22,621.55z" class="st20"></path>
		</g>
		<g>
			<path d="M584.18,624.06c10.7-6.83,21.41-13.65,32.11-20.48c5.84-3.72,11.67-7.44,17.51-11.16c1.25-0.8,2.48-1.71,3.88-2.23
				c5.3-1.93,10.99,1.65,12.38,6.93c1.46,5.56,1.95,11.54,2.89,17.2c1.12,6.74,2.31,13.48,3.36,20.23c0.67,4.33-0.77,8.73-4.89,10.8
				c-2.31,1.16-4.68,0.9-7.11,0.48c-6.01-1.05-12.03-2.09-18.04-3.14c-14.48-2.52-28.96-5.04-43.43-7.56
				c0.91,0.91,1.82,1.82,2.72,2.73c-0.06-5.58-0.12-11.16-0.18-16.74c-0.05-4.08-6.35-3.2-6.3,0.85c0.06,5.58,0.12,11.16,0.18,16.74
				c0.02,1.41,1.46,2.51,2.72,2.73c13.59,2.37,27.18,4.73,40.77,7.1c6.79,1.18,13.59,2.37,20.38,3.55c2.58,0.45,5.1,0.75,7.71,0.16
				c6.04-1.37,10.68-6.39,11.8-12.45c0.55-2.99,0.02-5.84-0.46-8.77c-0.65-3.88-1.29-7.76-1.94-11.65
				c-1.21-7.3-2.28-14.65-3.64-21.92c-2.13-11.31-14.06-17.9-24.29-11.6c-3.96,2.44-7.86,5.01-11.78,7.51
				c-13.42,8.56-26.83,17.11-40.25,25.67C576.82,621.24,580.74,626.24,584.18,624.06z"></path>
		</g>
	</g>
	<g>
		<g>
			<path d="M553.12,619.83l-59.56-18.73c-8.64-2.72-16.95,4.48-15.81,13.7l4.61,37.27
				c1.08,8.74,10.09,14.06,17.78,10.51L557.71,636L553.12,619.83z" class="st20"></path>
		</g>
		<g>
			<path d="M554.35,616.89c-13.19-4.15-26.38-8.3-39.58-12.45c-6.26-1.97-12.51-3.96-18.78-5.91c-3.06-0.95-6.11-1.56-9.32-0.85
				c-5.93,1.3-10.56,6.1-11.83,12.01c-0.63,2.93-0.21,5.79,0.15,8.7c0.48,3.9,0.97,7.81,1.45,11.71c0.91,7.34,1.66,14.72,2.73,22.04
				c1.56,10.65,12.07,17.71,22.34,13.3c4.82-2.07,9.54-4.4,14.29-6.6c14.38-6.64,28.76-13.28,43.15-19.93
				c1.71-0.79,2.16-2.47,1.68-4.17c-1.53-5.39-3.06-10.78-4.59-16.17c-1.11-3.92-6.96-1.4-5.85,2.49
				c1.53,5.39,3.06,10.78,4.59,16.17c0.56-1.39,1.12-2.78,1.68-4.17c-11.41,5.27-22.81,10.54-34.22,15.8
				c-6.57,3.03-13.13,6.06-19.7,9.1c-1.2,0.56-2.39,1.15-3.61,1.67c-5.04,2.14-10.76-0.25-12.76-5.41
				c-0.79-2.03-0.87-4.39-1.14-6.54c-0.46-3.75-0.93-7.49-1.39-11.24c-0.88-7.07-1.8-14.14-2.63-21.22
				c-0.88-7.48,4.82-13.12,12.27-10.9c5.52,1.65,11.01,3.46,16.51,5.19c14.04,4.42,28.08,8.83,42.12,13.25
				C555.78,623.98,558.25,618.12,554.35,616.89z"></path>
		</g>
	</g>
	<g>
		<g>
			
				<ellipse ry="16.56" rx="14.23" cy="627.51" cx="567.45" class="st20" transform="matrix(0.039 -0.9992 0.9992 0.039 -81.7472 1170.0236)"></ellipse>
		</g>
		<g>
			<path d="M547.75,628.34c0.5,7.89,6.87,13.88,14.22,15.83c7.54,2.01,15.98-0.11,21.22-6.01c5.09-5.73,5.19-14.34,0.55-20.36
				c-4.74-6.15-13.26-8.83-20.76-7.29C554.29,612.3,547.48,619.2,547.75,628.34c0.05,1.72,2,2.94,3.58,2.73
				c1.85-0.25,2.78-1.85,2.73-3.58c-0.15-5.04,4.05-8.91,8.56-10.35c5.03-1.61,11.14-0.43,14.98,3.28
				c3.42,3.31,4.37,8.55,1.57,12.58c-3.1,4.45-8.82,6.18-14.03,5.38c-5.68-0.87-10.71-4.98-11.08-10.88
				c-0.11-1.72-1.96-2.94-3.58-2.73C548.67,625.01,547.64,626.62,547.75,628.34z"></path>
		</g>
	</g>
</g>
<g>
	<path d="M525.22,323.43c0.59,3.03,1.54,6.06,2.83,8.85c1.08,2.33,2.37,4.76,4.41,6.4c2.23,1.79,5.15,2.52,7.87,1.38
		c4.23-1.78,6.92-6.07,9.07-9.91c0.81-1.45,0.16-3.58-1.37-4.29c-1.61-0.74-3.42-0.19-4.29,1.37c-0.56,1-1.14,1.99-1.78,2.94
		c-0.18,0.27-0.39,0.54-0.06,0.1c-0.13,0.18-0.26,0.36-0.39,0.54c-0.27,0.36-0.54,0.71-0.83,1.05c-0.49,0.59-1.03,1.11-1.58,1.64
		c-0.15,0.15,0.62-0.49,0.15-0.14c-0.12,0.09-0.23,0.18-0.34,0.26c-0.24,0.17-0.48,0.32-0.73,0.47c-0.44,0.28,0.1-0.09,0.3-0.13
		c-0.11,0.02-0.22,0.1-0.32,0.14c-0.24,0.09-0.49,0.14-0.73,0.23c-0.39,0.14,0.83-0.07,0.43-0.08c-0.1,0-0.2,0.02-0.3,0.03
		c-0.1,0.01-0.2,0-0.29,0.01c-0.53,0.04,0.48,0.07,0.42,0.04c-0.15-0.07-0.44-0.09-0.61-0.12c-0.47-0.09,0.31,0.09,0.41,0.16
		c-0.09-0.06-0.21-0.08-0.31-0.13c-0.17-0.09-0.34-0.18-0.52-0.28c-0.6-0.33,0.65,0.54,0.05,0.03c-0.35-0.3-0.65-0.67-1-0.96
		c0.12,0.11,0.55,0.68,0.24,0.27c-0.07-0.09-0.14-0.18-0.21-0.27c-0.15-0.2-0.3-0.41-0.44-0.62c-0.29-0.43-0.57-0.88-0.82-1.34
		c-0.12-0.22-0.23-0.44-0.35-0.66c-0.07-0.13-0.28-0.58-0.02-0.02c0.27,0.57,0.03,0.05-0.04-0.08c-0.85-1.83-1.51-3.75-2.06-5.7
		c-0.29-1.04-0.57-2.09-0.78-3.16c-0.32-1.64-2.56-2.57-4.02-2.01C525.46,320.09,524.88,321.67,525.22,323.43L525.22,323.43z"></path>
</g>
<g>
	<path d="M555.33,356.77c0.34,1.74,0.89,3.49,1.63,5.09c0.72,1.55,1.55,3.16,2.92,4.26c1.64,1.32,3.84,1.91,5.86,1.07
		c2.8-1.17,4.56-3.81,5.99-6.36c0.81-1.45,0.16-3.58-1.37-4.29c-1.61-0.74-3.42-0.19-4.29,1.37c-0.39,0.69-0.8,1.37-1.25,2.03
		c0.15-0.22,0.31-0.45,0.46-0.67c-0.52,0.74-1.1,1.46-1.79,2.05c0.21-0.18,0.41-0.35,0.62-0.53c-0.3,0.25-0.62,0.48-0.98,0.66
		c0.25-0.12,0.49-0.24,0.74-0.36c-0.25,0.12-0.51,0.21-0.79,0.27c0.28-0.05,0.56-0.1,0.84-0.16c-0.21,0.03-0.41,0.05-0.63,0.03
		c0.28,0.02,0.57,0.05,0.85,0.07c-0.2-0.02-0.4-0.06-0.59-0.13c0.26,0.09,0.52,0.19,0.78,0.28c-0.25-0.09-0.48-0.22-0.69-0.37
		c0.22,0.15,0.45,0.31,0.67,0.46c-0.3-0.21-0.56-0.47-0.8-0.74c0.18,0.21,0.35,0.41,0.53,0.62c-0.52-0.61-0.93-1.31-1.29-2.03
		c0.12,0.25,0.24,0.49,0.36,0.74c-0.81-1.68-1.4-3.52-1.75-5.35c-0.14-0.72-0.94-1.5-1.56-1.82c-0.7-0.36-1.71-0.48-2.46-0.19
		c-0.76,0.29-1.47,0.8-1.82,1.56C555.14,355.14,555.16,355.88,555.33,356.77L555.33,356.77z"></path>
</g>
<g>
	<path d="M402.29,524.64c0.59,3.03,1.54,6.06,2.83,8.85c1.08,2.33,2.37,4.76,4.41,6.4c2.23,1.79,5.15,2.52,7.87,1.38
		c4.23-1.78,6.92-6.07,9.07-9.91c0.81-1.45,0.16-3.58-1.37-4.29c-1.61-0.74-3.42-0.19-4.29,1.37c-0.56,1-1.14,1.99-1.78,2.94
		c-0.18,0.27-0.39,0.54-0.06,0.1c-0.13,0.18-0.26,0.36-0.39,0.54c-0.27,0.36-0.54,0.71-0.83,1.05c-0.49,0.59-1.03,1.11-1.58,1.64
		c-0.15,0.15,0.62-0.49,0.15-0.14c-0.12,0.09-0.23,0.18-0.34,0.26c-0.24,0.17-0.48,0.32-0.73,0.47c-0.44,0.28,0.1-0.09,0.3-0.13
		c-0.11,0.02-0.22,0.1-0.32,0.14c-0.24,0.09-0.49,0.14-0.73,0.23c-0.39,0.14,0.83-0.07,0.43-0.08c-0.1,0-0.2,0.02-0.3,0.03
		c-0.1,0.01-0.2,0-0.29,0.01c-0.53,0.04,0.48,0.07,0.42,0.04c-0.15-0.07-0.44-0.09-0.61-0.12c-0.47-0.09,0.31,0.09,0.41,0.16
		c-0.09-0.06-0.21-0.08-0.31-0.13c-0.17-0.09-0.34-0.18-0.52-0.28c-0.6-0.33,0.65,0.54,0.05,0.03c-0.35-0.3-0.65-0.67-1-0.96
		c0.12,0.11,0.55,0.68,0.24,0.27c-0.07-0.09-0.14-0.18-0.21-0.27c-0.15-0.2-0.3-0.41-0.44-0.62c-0.29-0.43-0.57-0.88-0.82-1.34
		c-0.12-0.22-0.23-0.44-0.35-0.66c-0.07-0.13-0.28-0.58-0.02-0.02c0.27,0.57,0.03,0.05-0.04-0.08c-0.85-1.83-1.51-3.75-2.06-5.7
		c-0.29-1.04-0.57-2.09-0.78-3.16c-0.32-1.64-2.56-2.57-4.02-2.01C402.53,521.3,401.95,522.89,402.29,524.64L402.29,524.64z"></path>
</g>
<g>
	<path d="M714.15,421.51c0.59,3.03,1.54,6.06,2.83,8.85c1.08,2.33,2.37,4.76,4.41,6.4c2.23,1.79,5.15,2.52,7.87,1.38
		c4.23-1.78,6.92-6.07,9.07-9.91c0.81-1.45,0.16-3.58-1.37-4.29c-1.61-0.74-3.42-0.19-4.29,1.37c-0.56,1-1.14,1.99-1.78,2.94
		c-0.18,0.27-0.39,0.54-0.06,0.1c-0.13,0.18-0.26,0.36-0.39,0.54c-0.27,0.36-0.54,0.71-0.83,1.05c-0.49,0.59-1.03,1.11-1.58,1.64
		c-0.15,0.15,0.62-0.49,0.15-0.14c-0.12,0.09-0.23,0.18-0.34,0.26c-0.24,0.17-0.48,0.32-0.73,0.47c-0.44,0.28,0.1-0.09,0.3-0.13
		c-0.11,0.02-0.22,0.1-0.32,0.14c-0.24,0.09-0.49,0.14-0.73,0.23c-0.39,0.14,0.83-0.07,0.43-0.08c-0.1,0-0.2,0.02-0.3,0.03
		c-0.1,0.01-0.2,0-0.29,0.01c-0.53,0.04,0.48,0.07,0.42,0.04c-0.15-0.07-0.44-0.09-0.61-0.12c-0.47-0.09,0.31,0.09,0.41,0.16
		c-0.09-0.06-0.21-0.08-0.31-0.13c-0.17-0.09-0.34-0.18-0.52-0.28c-0.6-0.33,0.65,0.54,0.05,0.03c-0.35-0.3-0.65-0.67-1-0.96
		c0.12,0.11,0.55,0.68,0.24,0.27c-0.07-0.09-0.14-0.18-0.21-0.27c-0.15-0.2-0.3-0.41-0.44-0.62c-0.29-0.43-0.57-0.88-0.82-1.34
		c-0.12-0.22-0.23-0.44-0.35-0.66c-0.07-0.13-0.28-0.58-0.02-0.02c0.27,0.57,0.03,0.05-0.04-0.08c-0.85-1.83-1.51-3.75-2.06-5.7
		c-0.29-1.04-0.57-2.09-0.78-3.16c-0.32-1.64-2.56-2.57-4.02-2.01C714.39,418.17,713.81,419.75,714.15,421.51L714.15,421.51z"></path>
</g>
<g>
	<g>
		<polygon points="-10.42,625.16 -10.42,1029.5 1038.65,1029.5 1038.65,780.44" class="st38"></polygon>
	</g>
	<g>
		<g>
			<path d="M-15.64,625.16c0,13.4,0,26.79,0,40.19c0,32.18,0,64.35,0,96.53c0,38.93,0,77.86,0,116.8c0,33.67,0,67.33,0,101
				c0,11.1,0,22.2,0,33.3c0,5.23-0.38,10.61,0,15.83c0.02,0.23,0,0.47,0,0.7c0,2.82,2.39,5.22,5.22,5.22c9.42,0,18.83,0,28.25,0
				c25.4,0,50.8,0,76.19,0c37.65,0,75.31,0,112.96,0c45.94,0,91.88,0,137.82,0c50.14,0,100.28,0,150.43,0c50.96,0,101.92,0,152.88,0
				c47.19,0,94.38,0,141.57,0c40.02,0,80.04,0,120.06,0c28.77,0,57.55,0,86.32,0c13.59,0,27.21,0.26,40.8,0c0.59-0.01,1.19,0,1.78,0
				c2.82,0,5.22-2.39,5.22-5.22c0-28.12,0-56.25,0-84.37c0-44.62,0-89.24,0-133.86c0-10.28,0-20.55,0-30.83
				c0-2.06-1.61-4.7-3.83-5.03c-9.34-1.38-18.67-2.76-28.01-4.15c-25.52-3.78-51.04-7.55-76.55-11.33
				c-37.62-5.57-75.24-11.14-112.86-16.71c-45.89-6.79-91.78-13.58-137.67-20.38c-50.26-7.44-100.52-14.88-150.78-22.32
				c-50.9-7.53-101.8-15.07-152.7-22.6c-47.29-7-94.58-14-141.88-21c-39.96-5.91-79.92-11.83-119.88-17.74
				c-28.73-4.25-57.46-8.5-86.19-12.76c-13.6-2.01-27.2-4.05-40.81-6.04c-0.58-0.08-1.16-0.17-1.74-0.26
				c-6.57-0.97-9.41,9.08-2.77,10.06c9.34,1.38,18.67,2.76,28.01,4.15c25.52,3.78,51.04,7.55,76.55,11.33
				c37.62,5.57,75.24,11.14,112.86,16.71c45.89,6.79,91.78,13.58,137.67,20.38c50.26,7.44,100.52,14.88,150.78,22.32
				c50.9,7.53,101.8,15.07,152.7,22.6c47.29,7,94.58,14,141.88,21c39.96,5.91,79.92,11.83,119.88,17.74
				c28.73,4.25,57.46,8.5,86.19,12.76c13.46,1.99,27.23,5.08,40.81,6.04c0.58,0.04,1.17,0.17,1.74,0.26
				c-1.28-1.68-2.55-3.35-3.83-5.03c0,28.12,0,56.25,0,84.37c0,44.62,0,89.24,0,133.86c0,10.28,0,20.55,0,30.83
				c1.74-1.74,3.48-3.48,5.22-5.22c-9.42,0-18.83,0-28.25,0c-25.4,0-50.8,0-76.19,0c-37.65,0-75.31,0-112.96,0
				c-45.94,0-91.88,0-137.82,0c-50.14,0-100.28,0-150.43,0c-50.96,0-101.92,0-152.88,0c-47.19,0-94.38,0-141.57,0
				c-40.02,0-80.04,0-120.06,0c-28.77,0-57.55,0-86.32,0c-13.48,0-27.34-0.94-40.8,0c-0.59,0.04-1.19,0-1.78,0
				c1.74,1.74,3.48,3.48,5.22,5.22c0-13.4,0-26.79,0-40.19c0-32.18,0-64.35,0-96.53c0-38.93,0-77.86,0-116.8c0-33.67,0-67.33,0-101
				c0-11.1,0-22.2,0-33.3c0-5.23,0.38-10.61,0-15.83c-0.02-0.23,0-0.47,0-0.7C-5.2,618.45-15.64,618.44-15.64,625.16z"></path>
		</g>
	</g>
</g>
<g>
	<g>
		<path d="M491.69,519.97c0,0,41.54,11.03,78.08-21.56c6.87-6.13,16.64-8.55,25.05-4.81
			c8.41,3.74,18.2,13.68,10.61,34.61C590.29,569.92,508.64,565.91,491.69,519.97z" class="st0"></path>
	</g>
	<g>
		<g>
			<path d="M490.99,522.49c11.75,3.07,24.96,2.37,36.72,0c11.82-2.37,23.19-7.15,33.18-13.89c5.93-4,11.03-10.03,17.73-12.67
				c5.92-2.33,12.46-1.88,17.86,1.51c18.11,11.38,6.47,38.01-7.6,47.56c-14.09,9.56-32.85,11.27-49.25,8.15
				c-19.32-3.68-38.16-14.79-45.45-33.87c-1.19-3.11-6.23-1.76-5.03,1.39c13.74,35.97,63.15,48.26,96.02,32.46
				c16.76-8.06,30.9-28.7,24.07-47.82c-3.06-8.57-11.18-14.88-20.2-15.91c-15.59-1.79-25.67,12.37-38.11,19.16
				c-16.96,9.26-39.47,13.9-58.57,8.91C489.13,516.61,487.74,521.64,490.99,522.49z"></path>
		</g>
	</g>
</g>
<g>
	<g>
		<path d="M540.57,542.96c0,0,15.32,3.41,21.71-8.78c3.15-6.02,11.61-5.19,16.42-4.12s8.97-2.79,12.36-6.83" class="st0"></path>
		<path d="M545.26,545.52c-1.98,0-3.75-0.22-5.14-0.53l0.9-4.08c0.57,0.13,13.86,2.89,19.41-7.71c2.83-5.4,9.48-7.24,18.72-5.19
			c2.99,0.65,6.18-1.22,10.31-6.14l3.2,2.68c-3.53,4.22-8.37,8.86-14.41,7.53c-4.19-0.94-11.6-1.77-14.12,3.05
			C559.83,543.34,551.55,545.52,545.26,545.52z"></path>
	</g>
	<g>
		<path d="M553.4,541.87c0,0,3.72-1.02,7.6,6.88c0,0,2.59,1.27,3.8,1.56" class="st0"></path>
		<path d="M564.3,552.34c-1.36-0.33-3.75-1.48-4.22-1.71l-0.64-0.31l-0.31-0.64c-2.93-5.98-5.31-5.75-5.32-5.75l-0.95-4.06
			c0.53-0.15,5.29-1.15,9.69,7.32c0.97,0.45,2.2,0.98,2.75,1.11L564.3,552.34z"></path>
	</g>
	<g>
		<path d="M572.38,529.46c0,0,3.99-1.09,8.13,7.37c0,0,2.78,1.35,4.07,1.67" class="st0"></path>
		<path d="M584.08,540.52c-1.43-0.35-3.99-1.57-4.49-1.82l-0.64-0.31l-0.32-0.64c-3.15-6.43-5.85-6.26-5.84-6.25l-0.97-4.06
			c0.57-0.14,5.55-1.21,10.22,7.81c1.06,0.49,2.41,1.07,3.02,1.22L584.08,540.52z"></path>
	</g>
</g>
<g>
	<g>
		<path d="M433.92,579.43c0,0-88.64,78.72-63.72,127.16c9.18,17.84,31.12,25.5,49.87,18.35
			c7.82-2.98,14.82-8.58,16.92-18.91l31.27-104.18L433.92,579.43z" class="st6"></path>
	</g>
	<g>
		<g>
			<path d="M432.07,577.58c-13.44,11.95-25.74,25.51-36.82,39.66c-15.91,20.32-34.16,46.93-31.93,74.11
				c1.23,14.94,9.93,28.32,23.67,34.71c14.69,6.83,35.89,5.7,46.88-7.5c4.86-5.83,6.37-14.3,8.53-21.5
				c3.3-11.01,6.61-22.02,9.91-33.03c6.15-20.5,12.31-41,18.46-61.5c0.34-1.15-0.24-2.32-1.2-2.95
				c-11.45-7.47-22.89-14.94-34.34-22.42c-2.82-1.84-5.44,2.68-2.63,4.51c11.45,7.47,22.89,14.94,34.34,22.42
				c-0.4-0.98-0.8-1.96-1.2-2.95c-10.28,34.23-20.95,68.37-30.84,102.72c-1.26,4.38-2.46,8.55-5.62,12.03
				c-6.2,6.84-16.47,9.41-25.4,9.04c-17-0.7-31.64-12.89-34.81-29.66c-4.82-25.52,13-52.13,27.57-71.37
				c11.59-15.3,24.76-29.87,39.12-42.64C438.28,579.03,434.58,575.35,432.07,577.58z"></path>
		</g>
	</g>
</g>
<g>
	<g>
		<path d="M368.6,251.65c0,0,129.46,45.4,423.3-32.7l31.3,45.94c0,0-294.46,97.45-465.49,29.97L368.6,251.65z" class="st39"></path>
	</g>
	<g>
		<g>
			<path d="M367.91,254.17c19.54,6.83,41.45,8.93,61.89,10.79c64.08,5.85,129.05,0.99,192.57-8.12
				c57.41-8.22,114.18-20.52,170.22-35.38c-0.98-0.4-1.96-0.8-2.95-1.2c10.43,15.31,20.86,30.63,31.3,45.94
				c0.52-1.28,1.04-2.56,1.56-3.83c-35.66,11.79-72.42,20.81-109.08,28.8c-74.88,16.3-152.04,27.26-228.84,24.48
				c-42.82-1.55-86.1-7.6-126.19-23.31c0.61,1.07,1.21,2.14,1.82,3.21c3.63-14.4,7.26-28.81,10.9-43.21
				c0.82-3.26-4.21-4.65-5.03-1.39c-3.63,14.4-7.26,28.81-10.9,43.21c-0.37,1.47,0.48,2.68,1.82,3.21
				c35.58,13.94,73.77,20.25,111.77,22.7c40.2,2.59,80.62,0.82,120.65-3.36c66.3-6.92,132.02-20.25,196.25-37.98
				c12.8-3.53,25.61-7.16,38.22-11.33c1.49-0.49,2.56-2.37,1.56-3.83c-10.43-15.31-20.86-30.63-31.3-45.94
				c-0.66-0.97-1.77-1.51-2.95-1.2c-88.45,23.45-179.23,41.05-270.83,44.98c-43.92,1.88-88.92,1.21-132.17-7.54
				c-6.33-1.28-12.8-2.6-18.91-4.74C366.12,248.03,364.75,253.07,367.91,254.17z"></path>
		</g>
	</g>
</g>
<g>
	<g>
		<g>
			<path d="M782.09,213.95c0,0,21.89-40.19,60.51-32.46c0,0,19.31,52.78-39.91,61.79L782.09,213.95z" class="st39"></path>
		</g>
		<g>
			<g>
				<path d="M784.34,215.27c7.34-13.42,20.53-25.57,35.21-30.12c7.27-2.26,14.89-2.57,22.35-1.14c-0.61-0.61-1.21-1.21-1.82-1.82
					c5.87,16.13,3.63,36.53-10.27,47.78c-7.87,6.37-17.99,9.26-27.82,10.8c0.98,0.4,1.96,0.8,2.95,1.2
					c-6.87-9.78-13.73-19.55-20.6-29.33c-1.92-2.73-6.44-0.12-4.51,2.63c6.87,9.78,13.73,19.55,20.6,29.33
					c0.74,1.05,1.71,1.39,2.95,1.2c14.7-2.31,29.69-8.16,38.13-21.08c5.62-8.6,7.34-19.23,6.49-29.34c-0.31-3.67-0.9-7.33-1.81-10.9
					c-0.37-1.45-0.75-4.06-2.02-5.04c-1.47-1.13-4.38-1.07-6.18-1.27c-2.25-0.24-4.52-0.33-6.79-0.25
					c-4.17,0.14-8.36,0.81-12.36,1.99c-7.23,2.13-13.84,5.86-19.74,10.5c-7.58,5.96-14.61,13.71-19.26,22.22
					C778.22,215.58,782.73,218.22,784.34,215.27z"></path>
			</g>
		</g>
	</g>
	<g>
		<g>
			<path d="M802.69,243.28c0,0,30.9-51.49,91.4-18.02c0,0-10.3,65.66-84.97,42.48L802.69,243.28z" class="st39"></path>
		</g>
		<g>
			<g>
				<path d="M804.94,244.6c5.02-8.31,13.1-15.38,21.38-20.23c21.29-12.46,45.63-8.2,66.45,3.14c-0.4-0.98-0.8-1.96-1.2-2.95
					c-3.45,21.64-20.09,40.5-41.81,44.55c-13.34,2.49-27.13,0.01-39.94-3.89c0.61,0.61,1.21,1.21,1.82,1.82
					c-2.15-8.15-4.29-16.31-6.44-24.46c-0.85-3.24-5.89-1.87-5.03,1.39c1.07,4.08,2.15,8.15,3.22,12.23
					c1.01,3.84,1.5,8.64,3.22,12.23c1.48,3.08,7.42,3.47,10.4,4.17c4.02,0.94,8.08,1.66,12.18,2.14c7.01,0.82,14.1,0.76,21.07-0.43
					c19.82-3.4,34.88-17.35,42.44-35.59c1.69-4.08,3.21-8.39,3.91-12.77c0.18-1.13-0.11-2.35-1.2-2.95
					c-17.9-9.75-38.71-15.18-58.71-8.91c-12.13,3.8-22.95,11.41-31.17,21.06c-1.82,2.14-3.64,4.39-5.09,6.8
					C798.69,244.85,803.2,247.47,804.94,244.6z"></path>
			</g>
		</g>
	</g>
	<g>
		<path d="M806.93,256.86c-1.14,0-1.85-0.03-2.02-0.04l0.19-4.17c0.28,0.01,28.05,1.06,42.65-13.14l2.91,2.99
			C836.98,255.8,813.91,256.86,806.93,256.86z"></path>
	</g>
	<g>
		<path d="M796.01,234.26l-1.92-3.7c18.6-9.68,21.95-31.26,21.98-31.47l4.13,0.59C820.06,200.65,816.56,223.57,796.01,234.26z"></path>
	</g>
</g>
<g>
	<g>
		<path d="M538.86,730.22L348.69,881.88L171.1,834.73l183.88-129.66C354.98,705.07,474.42,690.93,538.86,730.22z" class="st0"></path>
		<path d="M349.18,884.17L166.25,835.6l187.96-132.54l0.53-0.06c1.2-0.15,120.9-13.78,185.21,25.43l2.54,1.55L349.18,884.17z
			 M175.96,833.86l172.25,45.73l186.97-149.12c-61.46-35.31-170.93-24.31-179.44-23.39L175.96,833.86z"></path>
	</g>
	<g>
		<path d="M551.43,911.74l187.8-150.09c0,0-90.37-40.08-200.38-31.43L348.69,881.88L551.43,911.74z" class="st0"></path>
		<path d="M552.02,913.93l-0.9-0.13l-207.49-30.56l194.42-155.06l0.64-0.05c109.25-8.6,200.48,31.2,201.39,31.61l3.14,1.39
			L552.02,913.93z M353.75,880.51l197.08,29.03l184.34-147.32c-16.98-6.85-99.02-37.36-195.52-29.98L353.75,880.51z"></path>
	</g>
	<g>
		<path d="M171.1,834.73c0,0-12.57,20.43-11.79,36.15c0,0,164.23-3.93,183.88,47.93c0,0,157.94-24.36,214.52,26.72
			v-38.5c0,0-81.72-57.36-209.02-25.15C348.69,881.88,352.62,838.66,171.1,834.73z" class="st40"></path>
		<path d="M559.8,950.22l-3.49-3.15c-55.19-49.83-211.23-26.45-212.8-26.21l-1.67,0.26l-0.6-1.58
			c-18.9-49.89-180.24-46.62-181.87-46.58l-2.03,0.05l-0.1-2.03c-0.81-16.18,11.57-36.49,12.09-37.34l0.63-1.02l1.2,0.02
			c118.67,2.57,160.08,21.58,173.92,37.07c3.54,3.96,4.9,7.34,5.42,9.56c125.44-30.79,207.6,25.46,208.42,26.04l0.89,0.62V950.22z
			 M425.99,910.92c1.08,0,2.17,0,3.26,0.01c59.4,0.38,101.87,10.49,126.38,30.09v-32.88c-4.29-2.8-23.95-14.9-55.44-23.82
			c-32.87-9.3-85.75-16.93-150.98-0.42l-2.86,0.73l0.26-2.94c0,0,0.15-4.03-5.04-9.62c-11.13-11.99-47.93-32.47-169.29-35.23
			c-2.33,4.04-10.61,19.3-10.91,31.9c19.95-0.26,161.79-0.69,183.13,47.76C352.24,915.41,386.45,910.92,425.99,910.92z"></path>
	</g>
	<g>
		<polygon points="739.23,761.65 739.23,804.08 559.78,948.57 557.72,907.02" class="st40"></polygon>
		<path d="M557.89,952.77l-2.32-46.71l0.83-0.67l184.91-148.09v47.77L557.89,952.77z M559.85,907.99l1.81,36.39l175.49-141.29V766
			L559.85,907.99z"></path>
	</g>
	<g>
		<g>
			<path d="M519.5,840.63c15.14,5.38,30.83,8.88,46.81,10.58c3.34,0.35,3.31-4.87,0-5.22c-15.5-1.64-30.74-5.17-45.42-10.39
				C517.72,834.47,516.35,839.51,519.5,840.63L519.5,840.63z"></path>
		</g>
	</g>
	<g>
		<g>
			<path d="M567.96,823.68c20.03,2.01,39.82,5.86,59.16,11.43c3.23,0.93,4.61-4.1,1.39-5.03c-19.8-5.7-40.05-9.56-60.55-11.62
				C564.62,818.13,564.65,823.35,567.96,823.68L567.96,823.68z"></path>
		</g>
	</g>
	<g>
		<g>
			<path d="M532.58,811.53c-15.07-7.52-31.9-10.97-48.71-9.81c-3.33,0.23-3.36,5.45,0,5.22c15.89-1.1,31.81,1.98,46.07,9.09
				C532.94,817.53,535.59,813.03,532.58,811.53L532.58,811.53z"></path>
		</g>
	</g>
	<g>
		<g>
			<path d="M518.36,778.75c47.53,2.66,94.66,9.9,140.81,21.58c3.26,0.82,4.65-4.21,1.39-5.03c-46.58-11.8-94.21-19.08-142.19-21.77
				C515.01,773.34,515.02,778.56,518.36,778.75L518.36,778.75z"></path>
		</g>
	</g>
	<g>
		<g>
			<path d="M323.66,779.86c15.94,5.93,32.11,8.15,49.03,8.59c17.63,0.46,34.65,5.77,52.28,6.83c3.35,0.2,3.34-5.02,0-5.22
				c-16.98-1.02-33.35-6.22-50.32-6.78c-17.19-0.56-33.37-2.43-49.6-8.46C321.89,773.66,320.53,778.7,323.66,779.86L323.66,779.86z"></path>
		</g>
	</g>
	<g>
		<g>
			<path d="M246.54,803.81c18.43,0.25,36.67,2.96,54.38,8.06c3.23,0.93,4.61-4.1,1.39-5.03c-18.13-5.22-36.9-7.98-55.77-8.24
				C243.18,798.55,243.18,803.76,246.54,803.81L246.54,803.81z"></path>
		</g>
	</g>
	<g>
		<g>
			<path d="M343.98,819.99c9.5,0.13,18.98,0.53,28.45,1.25c4.73,0.36,9.46,0.78,14.18,1.29c2.18,0.23,4.36,0.45,6.53,0.74
				c1.42,0.19,4.04,0.29,4.31,2.02c0.52,3.31,5.55,1.9,5.03-1.39c-0.63-3.98-4.8-5.26-8.25-5.72c-5.43-0.72-10.89-1.24-16.34-1.72
				c-11.28-0.98-22.59-1.53-33.91-1.69C340.62,814.73,340.62,819.95,343.98,819.99L343.98,819.99z"></path>
		</g>
	</g>
	<g>
		<g>
			<path d="M314.18,834.26c18.7,3.55,37.55,6.24,56.49,8.09c3.34,0.33,3.32-4.89,0-5.22c-18.48-1.8-36.86-4.45-55.1-7.91
				C312.29,828.61,310.88,833.64,314.18,834.26L314.18,834.26z"></path>
		</g>
	</g>
	<g>
		<g>
			<path d="M452.52,856.82c35.87,6.44,71.26,15.22,105.98,26.28c3.21,1.02,4.58-4.01,1.39-5.03
				c-34.72-11.06-70.11-19.84-105.98-26.28C450.63,851.2,449.22,856.23,452.52,856.82L452.52,856.82z"></path>
		</g>
	</g>
	<g>
		<g>
			<path d="M735.74,777.73c-5.44,5.76-12.64,9.15-19.08,13.61c-6.19,4.29-11.84,9.69-14.12,17.07c-0.99,3.22,4.04,4.59,5.03,1.39
				c2.07-6.7,7.77-11.4,13.44-15.1c6.34-4.15,13.16-7.71,18.42-13.28C741.73,778.98,738.05,775.28,735.74,777.73L735.74,777.73z"></path>
		</g>
	</g>
	<g>
		<g>
			<path d="M487.74,912.69c22.42-0.08,46.53,2.27,64.3,17.41c2.54,2.17,6.25-1.51,3.69-3.69c-18.91-16.11-44.04-19.02-67.99-18.93
				C484.38,907.49,484.38,912.7,487.74,912.69L487.74,912.69z"></path>
		</g>
	</g>
	<g>
		<g>
			<path d="M520.06,904.12c13.43,4.41,26.17,10.62,37.96,18.44c2.81,1.86,5.42-2.66,2.63-4.51c-12.15-8.06-25.35-14.42-39.2-18.97
				C518.25,898.04,516.88,903.08,520.06,904.12L520.06,904.12z"></path>
		</g>
	</g>
	<g>
		<g>
			<path d="M364.28,904.53c27.43-3.8,55.35-3.82,82.78-0.04c3.28,0.45,4.7-4.58,1.39-5.03c-28.45-3.92-57.11-3.9-85.56,0.04
				C359.58,899.96,360.99,904.99,364.28,904.53L364.28,904.53z"></path>
		</g>
	</g>
	<g>
		<g>
			<path d="M162.33,862.16c34.71-5.18,70.13-2.85,103.91,6.65c3.24,0.91,4.62-4.12,1.39-5.03c-34.73-9.78-71.01-11.98-106.68-6.65
				C157.64,857.62,159.04,862.65,162.33,862.16L162.33,862.16z"></path>
		</g>
	</g>
</g>
<g>
	<g>
		<path d="M667.16,761.06c-5.36,8.25-19.25,12.27-22.38,10.85c-4.94-2.24-8.2-3.37-9.6-5.92
			c-0.84-1.54,0.32-3.33,2.07-3.46c12.48-0.95,25.36-16,25.36-16s-15.9,19.88-31.92,16.05c-9.3-2.22-9.25-8.37-7.57-13.14
			c1.1-3.12,4.06-4.98,7.37-5.1c8.91-0.33,21.25-13.92,21.25-13.92c-11.03,11.46-18.74,14.66-23.99,14.48
			c-6.51-0.23-10.16-7.73-6.47-13.1c23.24-33.74,102.98-67.86,102.98-67.86c0.49-0.09,0.98-0.18,1.46-0.27
			c35.53-6.08,64.64,34.67,39.55,63.15c-21.96,24.91-58.73,48.97-97.97,54.94c-9.12,1.39-18.31-2.1-24.42-9.01
			c-0.08-0.09-0.16-0.19-0.25-0.28" class="st3"></path>
	</g>
	<g>
		<g>
			<path d="M770.64,707.89c-2.25,13.58-14.13,23.61-24.04,32.09c-14.12,12.07-30.19,21.95-47.37,29.03
				c-9.07,3.74-18.54,6.58-28.19,8.4c-9.82,1.85-18.84,0.35-25.72-7.46c-3.14-3.56-8.49,1.5-5.36,5.05
				c5.97,6.77,14.78,10.94,23.86,10.75c9.42-0.2,19.31-3.26,28.17-6.24c18.09-6.09,34.98-15.27,50.26-26.67
				c7.13-5.31,13.88-11.14,20.11-17.49c5.43-5.54,10.45-11.27,13.38-18.55c1.19-2.97,1.96-6.04,2.33-9.15"></path>
		</g>
		<g>
			<path d="M761.76,669.84c-7.03-5.7-15.63-9.35-24.8-10.25c-4.74-0.47-10.34-0.45-14.81,1.28c-2.26,0.87-4.45,1.97-6.65,2.98
				c-24.19,11.12-48.02,23.79-69.57,39.5c-6.5,4.74-12.8,9.8-18.48,15.51c-4.83,4.85-12,11.44-11.23,18.9
				c0.87,8.37,8.97,12.17,16.51,10.23c8.5-2.18,15.58-8.78,21.52-14.88c-1.68-1.79-3.36-3.57-5.05-5.36
				c-3.68,4.03-7.95,7.89-12.68,10.63c-1.52,0.88-3.13,1.72-4.87,2.1c-2.27,0.5-4.4,0.44-6.54,1.54c-3.99,2.06-5.99,6.08-6.45,10.41
				c-0.96,9.09,7.31,14,15.48,14.3c7.63,0.28,14.77-3.4,20.72-7.84c4.04-3.01,7.71-6.53,10.87-10.45c2.58-3.2-2.96-7.73-5.67-4.59
				c-3.19,3.71-6.96,7.13-10.98,9.9c-3.1,2.13-6.51,4.05-10.22,4.84c-3.64,0.77-7.89,1.78-7.64,6.56c0.21,4,4.02,6.4,7.25,7.95
				c3.44,1.64,6.32,3.09,10.17,2.6c8.33-1.06,16.83-5.81,21.64-12.72c2.7-3.89-3.59-7.7-6.29-3.83l0,0
				c-3.46,4.98-10.37,8.67-16.4,9.31c-2.39,0.25-4.91-1.33-7.04-2.53c0.03,0.01-1.92-1.26-1.85-1.29c-0.23,0.5-0.47,0.99-0.7,1.49
				c0.31-0.03,0.62-0.07,0.94-0.1c1.35,0.18,3.32-0.69,4.56-1.13c8.32-2.89,15.91-9.06,21.62-15.69c-1.89-1.53-3.78-3.06-5.67-4.59
				c1.29-1.6-0.05,0.04-0.37,0.39c-0.66,0.73-1.32,1.45-2.01,2.16c-2.24,2.3-4.65,4.48-7.25,6.36c-5.75,4.17-15.01,8.64-21.82,4.09
				c-2.85-1.9-2.78-6.96,0.15-8.89c1.81-1.19,4.6-0.83,6.66-1.51c1.81-0.59,3.56-1.41,5.21-2.37c5.28-3.06,10.11-7.25,14.23-11.75
				c3.17-3.46-1.71-8.78-5.05-5.36c-4.81,4.94-10.35,10.46-17.05,12.75c-1.81,0.62-4.2,1.2-6.03,0.34c-3.19-1.5-3.03-5.16-1.31-7.68
				c6.67-9.76,16.69-17.57,26.16-24.44c19.67-14.29,41.43-25.86,63.38-36.22c4.12-1.95,9.26-4.81,13.11-5.37
				c10.59-1.54,21.48,1.69,29.71,8.4"></path>
		</g>
	</g>
	<g>
		<circle r="5.09" cy="688.65" cx="770.65"></circle>
	</g>
</g>
<g>
	<g>
		<g>
			<path d="M395.24,752.65l-25.91-43.03c0,0,14.56-17.71,37.61-10.78l-1.93,50.82
				C404.79,755.35,398.1,757.4,395.24,752.65z" class="st41"></path>
		</g>
		<g>
			<g>
				<path d="M397.49,751.33c-7.57-12.57-15.13-25.14-22.7-37.7c-1.07-1.77-2.14-3.55-3.21-5.33c-0.14,1.05-0.27,2.11-0.41,3.16
					c8.4-10.13,22.7-13.68,35.07-10.11c-0.64-0.84-1.28-1.68-1.92-2.52c-0.61,16.03-1.22,32.05-1.83,48.08
					c-0.03,0.89,0,1.81-0.1,2.69C402.1,752.25,399.25,753.95,397.49,751.33c-1.86-2.77-6.38-0.16-4.51,2.63
					c4.48,6.67,13.91,3.89,14.61-3.98c0.23-2.54,0.21-5.13,0.31-7.68c0.43-11.36,0.86-22.72,1.3-34.08
					c0.12-3.13,0.24-6.26,0.36-9.39c0.04-1.15-0.84-2.21-1.92-2.52c-14-4.04-30.61-0.05-40.15,11.45c-0.74,0.89-1.04,2.11-0.41,3.16
					c7.57,12.57,15.13,25.14,22.7,37.7c1.07,1.78,2.14,3.55,3.21,5.33C394.72,756.84,399.23,754.22,397.49,751.33z"></path>
			</g>
		</g>
	</g>
	<g>
		<g>
			<path d="M329.33,599.11l13.12,34.69l6.16,6.65l20.73,69.17l37.65-6.88l-7.45-77.75l1.32-9.84l-8.35-35.22
				C392.5,579.94,353.09,558.22,329.33,599.11z" class="st42"></path>
		</g>
		<g>
			<g>
				<path d="M326.81,599.8c3.02,7.98,6.03,15.96,9.05,23.94c1.28,3.4,2.33,7.05,3.9,10.33c1.35,2.81,4.13,5.59,6.46,7.65
					c0.98,0.87-0.33-1.46,0.1,0.21c0.27,1.05,0.62,2.08,0.94,3.12c1.17,3.9,2.34,7.81,3.51,11.71c3.26,10.87,6.51,21.73,9.77,32.6
					c2.09,6.98,4.19,13.97,6.28,20.95c0.43,1.44,1.79,2.08,3.21,1.82c12.55-2.29,25.1-4.59,37.65-6.88
					c1.03-0.19,2.02-1.46,1.92-2.52c-1.13-11.76-2.25-23.51-3.38-35.27c-1.32-13.78-3.7-27.89-4-41.73
					c-0.09-3.95,1.57-7.93,1.02-11.85c-0.99-7.02-3.34-14.1-4.98-20.99c-0.87-3.65-1.73-7.3-2.6-10.95
					c-0.4-1.67-0.49-3.15-1.88-4.28c-2.84-2.31-8.01-3.41-11.43-4.29c-8.67-2.24-17.97-2.55-26.6,0.03
					c-12.68,3.79-22.03,13.27-28.67,24.39c-1.72,2.89,2.78,5.52,4.51,2.63c10.76-18.04,28.65-27.37,49.37-22.02
					c2.46,0.63,4.89,1.42,7.23,2.39c0.46,0.19,2.5,1.53,2.98,1.39c-1.59,0.45-1.11-2.87-0.88-0.3c0.09,1.1,0.54,2.27,0.79,3.35
					c0.91,3.84,1.82,7.68,2.73,11.52c1.43,6.03,3.92,12.59,4.45,18.78c0.05,0.53-0.02-0.85-0.15,0.66
					c-0.16,1.79-0.48,3.57-0.72,5.35c-0.2,1.48-0.41,2.85-0.38,4.32c0.29,12.78,2.47,25.81,3.69,38.53
					c1.23,12.79,2.45,25.57,3.68,38.36c0.64-0.84,1.28-1.68,1.92-2.52c-12.55,2.29-25.1,4.59-37.65,6.88
					c1.07,0.61,2.14,1.21,3.21,1.82c-4.95-16.53-9.91-33.06-14.86-49.59c-1.87-6.24-3.06-13.5-5.82-19.41
					c-1.35-2.89-4.36-5.29-6.54-7.6c-0.83-0.88,0.65,1.43,0.21,0.47c-0.19-0.41-0.34-0.86-0.49-1.29c-0.65-1.93-1.45-3.83-2.17-5.73
					c-3.45-9.12-6.9-18.24-10.34-27.36C330.67,595.3,325.62,596.65,326.81,599.8z"></path>
			</g>
		</g>
	</g>
	<g>
		<g>
			<path d="M325.02,579.21l4.97,16.95c0,0,21.41-24.67,63.35-16.8l-3.13-15.68c-0.78-3.93-3.63-7.14-7.47-8.28
				c-9.66-2.85-29.54-5.14-53.67,11.92C325.32,569.98,323.72,574.8,325.02,579.21z" class="st0"></path>
		</g>
		<g>
			<g>
				<path d="M322.5,579.9c1.66,5.65,3.31,11.3,4.97,16.95c0.52,1.78,3.03,2.68,4.36,1.15c3.97-4.55,9.5-7.98,14.83-10.65
					c14.21-7.13,30.5-8.28,45.98-5.47c2.02,0.37,3.62-1.16,3.21-3.21c-1.9-9.52-1.93-22.75-13.11-25.98
					c-13.97-4.04-29.17-1.31-42.1,4.79C331.49,561.81,319.55,567.87,322.5,579.9c0.8,3.26,5.83,1.88,5.03-1.39
					c-1.71-6.97,4.28-10.17,9.43-13.19c4.64-2.72,9.53-4.99,14.66-6.6c7.57-2.38,15.62-3.35,23.51-2.29
					c2.61,0.35,5.58,0.77,7.99,1.89c3.18,1.48,4.25,4.44,4.88,7.6c0.94,4.71,1.88,9.42,2.82,14.13c1.07-1.07,2.14-2.14,3.21-3.21
					c-16.52-3-33.53-1.87-48.81,5.42c-6.12,2.92-12.56,6.88-17.08,12.05c1.45,0.38,2.91,0.77,4.36,1.15
					c-1.66-5.65-3.31-11.3-4.97-16.95C326.59,575.3,321.55,576.67,322.5,579.9z"></path>
			</g>
		</g>
	</g>
	<g>
		<g>
			<path d="M321.04,562.04l4.97,16.95c0,0,21.41-24.67,63.35-16.8l-3.13-15.68c-0.78-3.93-3.63-7.14-7.47-8.28
				c-9.66-2.85-29.54-5.14-53.67,11.92C321.34,552.81,319.75,557.63,321.04,562.04z" class="st39"></path>
		</g>
		<g>
			<g>
				<path d="M318.52,562.73c1.66,5.65,3.31,11.3,4.97,16.95c0.52,1.78,3.03,2.68,4.36,1.15c3.97-4.55,9.5-7.98,14.83-10.65
					c14.21-7.13,30.5-8.28,45.98-5.47c2.02,0.37,3.62-1.16,3.21-3.21c-1.9-9.52-1.93-22.75-13.11-25.98
					c-13.97-4.04-29.17-1.31-42.1,4.79C327.51,544.64,315.57,550.7,318.52,562.73c0.8,3.26,5.83,1.88,5.03-1.39
					c-1.71-6.97,4.28-10.17,9.43-13.19c4.64-2.72,9.53-4.99,14.66-6.6c7.57-2.38,15.62-3.35,23.51-2.29
					c2.61,0.35,5.58,0.77,7.99,1.89c3.18,1.48,4.25,4.44,4.88,7.6c0.94,4.71,1.88,9.42,2.82,14.13c1.07-1.07,2.14-2.14,3.21-3.21
					c-16.52-3-33.53-1.87-48.81,5.42c-6.12,2.92-12.56,6.88-17.08,12.05c1.45,0.38,2.91,0.77,4.36,1.15
					c-1.66-5.65-3.31-11.3-4.97-16.95C322.61,558.13,317.58,559.5,318.52,562.73z"></path>
			</g>
		</g>
	</g>
	<g>
		<g>
			<polyline points="345.42,585.07 356.22,630.05 364.2,636.62 381.19,707.45" class="st42"></polyline>
		</g>
		<g>
			<g>
				<path d="M344.41,585.35c2.08,8.67,4.16,17.33,6.24,26c1.21,5.06,2.43,10.11,3.64,15.17c0.68,2.82,0.69,3.86,2.92,5.7
					c1.84,1.51,4.37,2.98,5.86,4.82c0.7,0.86-0.16-0.53,0.18,0.09c0.18,0.33,0.19,0.88,0.3,1.24c0.95,3.34,1.63,6.79,2.44,10.17
					c2.78,11.58,5.56,23.16,8.33,34.74c1.95,8.15,3.91,16.3,5.86,24.45c0.31,1.31,2.33,0.75,2.01-0.55
					c-4.44-18.51-8.88-37.02-13.32-55.53c-0.98-4.1-1.97-8.21-2.95-12.31c-0.46-1.9-0.56-2.77-1.82-4.13
					c-1.83-1.99-4.48-3.22-6.33-5.2c-0.85-0.91-0.39,0.09-0.89-1.59c-1.28-4.33-2.12-8.83-3.17-13.22
					c-2.43-10.13-4.86-20.26-7.3-30.39C346.11,583.49,344.1,584.04,344.41,585.35L344.41,585.35z"></path>
			</g>
		</g>
	</g>
	<g>
		<g>
			<polyline points="378.79,577.99 386.62,623.1 383.49,630.82 396.86,703.25" class="st42"></polyline>
		</g>
		<g>
			<g>
				<path d="M377.78,578.27c1.48,8.54,2.96,17.08,4.45,25.62c0.9,5.19,1.8,10.37,2.7,15.56c0.73,4.23,0.44,3.96-1.27,8.19
					c-2.16,5.33,0.25,11.21,1.28,16.76c2.15,11.67,4.31,23.34,6.46,35.01c1.48,8.04,2.97,16.08,4.46,24.13
					c0.24,1.32,2.26,0.76,2.01-0.55c-3.38-18.28-6.75-36.57-10.13-54.85c-0.81-4.37-1.62-8.75-2.42-13.12
					c-0.21-1.14-0.6-2.39-0.65-3.55c-0.07-1.46-0.17-0.08,0.32-1.56c1-3.03,2.8-5.32,2.4-8.49c-0.56-4.38-1.52-8.75-2.27-13.1
					c-1.77-10.2-3.54-20.4-5.31-30.59C379.56,576.4,377.55,576.96,377.78,578.27L377.78,578.27z"></path>
			</g>
		</g>
	</g>
	<g>
		<g>
			<line y2="705.77" x2="390.42" y1="580.05" x1="363.31" class="st42"></line>
		</g>
		<g>
			<g>
				<path d="M362.3,580.33c7.9,36.64,15.8,73.29,23.71,109.93c1.13,5.26,2.27,10.52,3.4,15.79c0.28,1.31,2.3,0.76,2.01-0.55
					c-7.9-36.64-15.8-73.29-23.71-109.93c-1.13-5.26-2.27-10.52-3.4-15.79C364.03,578.46,362.02,579.02,362.3,580.33L362.3,580.33z"></path>
			</g>
		</g>
	</g>
</g>
<g>
	<g>
		<path d="M327.86,652.75c0.33-7.55,4.75-14.41,11.54-18.44c10.49-6.22,24.03-10.26,37-1.37
			c20.68,14.17,16.68,29.84,16.68,29.84s11.31,8.15,8.98,18.5c-2.33,10.35-40.63,28.53-51.65,18.5
			C340.52,690.77,326.55,682.75,327.86,652.75z" class="st3"></path>
	</g>
	<g>
		<g>
			<path d="M332.04,652.75c0.65-9.3,8.01-14.88,16.03-18.17c9.5-3.9,18.94-3.28,27.37,2.77c5.89,4.23,11.23,10.1,13.12,17.26
				c0.5,1.89,0.65,3.65,0.65,5.6c0,0.89-0.13,1.58-0.04,0.89c-0.02,0.19-0.07,0.39-0.11,0.58c-0.48,1.96,0.37,3.58,1.92,4.71
				c0.46,0.34-0.76-0.63-0.07-0.04c0.5,0.43,1,0.85,1.47,1.3c1.48,1.41,2.82,2.93,3.88,4.69c1.19,1.97,2.05,4.15,1.93,6.49
				c-0.09,1.79-0.24,2.08-1.26,3.41c-4.31,5.6-12.46,9.45-18.93,12.07c-6.39,2.59-15.82,6.14-22.74,3.55
				c-2.57-0.96-4.68-3.46-6.77-5.28c-2.75-2.39-5.46-4.86-7.8-7.66C333.15,675.89,331.62,664.13,332.04,652.75
				c0.2-5.37-8.15-5.37-8.35,0c-0.46,12.5,1.46,25.33,9.12,35.57c2.78,3.71,6.05,6.92,9.54,9.95c2.99,2.61,5.9,5.76,9.64,7.23
				c8.98,3.54,20.14,0.14,28.62-3.31c8.45-3.43,18.6-8.26,23.81-16.15c6.19-9.37-1.48-21.2-9.23-26.87
				c0.64,1.57,1.28,3.14,1.92,4.71c3.59-14.66-9.25-29.43-20.96-36.03c-19.39-10.93-50.8,1.16-52.45,24.89
				C323.32,658.11,331.67,658.09,332.04,652.75z"></path>
		</g>
	</g>
</g>
<g>
	<g>
		<g>
			<g>
				<polygon points="662.16,879.04 728.36,846.47 769.03,874.63 693.46,915.3" class="st41"></polygon>
			</g>
			<g>
				<g>
					<path d="M663.47,881.29c22.07-10.86,44.13-21.71,66.2-32.57c-0.88,0-1.76,0-2.63,0c13.56,9.39,27.11,18.77,40.67,28.16
						c0-1.5,0-3,0-4.51c-25.19,13.56-50.38,27.12-75.57,40.68c1.05,0.14,2.11,0.27,3.16,0.41c-10.43-12.09-20.87-24.18-31.3-36.27
						c-2.2-2.55-5.87,1.16-3.69,3.69c10.43,12.09,20.87,24.18,31.3,36.27c0.77,0.89,2.19,0.93,3.16,0.41
						c25.19-13.56,50.38-27.12,75.57-40.68c1.84-0.99,1.53-3.45,0-4.51c-13.56-9.39-27.11-18.77-40.67-28.16
						c-0.79-0.55-1.83-0.39-2.63,0c-22.07,10.86-44.13,21.71-66.2,32.57C657.83,878.27,660.47,882.77,663.47,881.29z"></path>
				</g>
			</g>
		</g>
		<g>
			<g>
				<polygon points="693.74,915 693.74,926.84 768.11,886.2 769.03,874.63" class="st41"></polygon>
			</g>
			<g>
				<g>
					<path d="M691.13,915c0,3.95,0,7.89,0,11.84c0,2.02,2.2,3.19,3.93,2.25c24.2-13.23,48.4-26.45,72.61-39.68
						c1.64-0.9,2.74-1.34,3.07-3.44c0.59-3.71,0.61-7.6,0.9-11.34c0.17-2.07-2.31-3.12-3.93-2.25
						c-21.93,11.76-43.86,23.52-65.79,35.28c-3.17,1.7-6.33,3.4-9.5,5.1c-2.96,1.59-0.33,6.09,2.63,4.51
						c21.93-11.76,43.86-23.52,65.79-35.28c3.17-1.7,6.33-3.4,9.5-5.1c-1.31-0.75-2.62-1.5-3.93-2.25
						c-0.31,3.86-0.61,7.71-0.92,11.57c0.43-0.75,0.86-1.5,1.29-2.25c-21.75,11.88-43.49,23.77-65.24,35.65
						c-3.04,1.66-6.09,3.33-9.13,4.99c1.31,0.75,2.62,1.5,3.93,2.25c0-3.95,0-7.89,0-11.84C696.35,911.64,691.13,911.64,691.13,915z"></path>
				</g>
			</g>
		</g>
		<g>
			<g>
				<polygon points="662.16,879.58 662.16,893.28 693.74,926.84 693.74,915" class="st41"></polygon>
			</g>
			<g>
				<g>
					<path d="M659.55,879.58c0,4.33-0.12,8.68,0,13.01c0.07,2.56,2.3,4.17,3.97,5.94c7.28,7.74,14.57,15.48,21.85,23.22
						c2.18,2.31,4.35,4.62,6.53,6.94c1.57,1.66,4.45,0.37,4.45-1.84c0-3.87,0.44-7.99,0-11.83c-0.27-2.36-3.37-4.78-4.85-6.44
						c-7.18-8.05-14.35-16.1-21.53-24.14c-1.99-2.23-3.98-4.46-5.97-6.7c-2.24-2.51-5.92,1.19-3.69,3.69
						c9.2,10.32,18.4,20.64,27.61,30.96c1.32,1.49,2.65,2.97,3.97,4.46c-0.25-0.61-0.51-1.23-0.76-1.84c0,3.95,0,7.89,0,11.84
						c1.48-0.61,2.97-1.23,4.45-1.84c-9.21-9.79-18.42-19.58-27.63-29.36c-1.32-1.4-2.63-2.8-3.95-4.2
						c0.25,0.61,0.51,1.23,0.76,1.84c0-4.57,0-9.13,0-13.7C664.77,876.22,659.55,876.22,659.55,879.58z"></path>
				</g>
			</g>
		</g>
		<g>
			<g>
				<polygon points="679.49,870.51 712.46,904.52 769.03,874.63 728.36,846.47" class="st39"></polygon>
			</g>
			<g>
				<g>
					<path d="M677.65,872.35c10.99,11.34,21.98,22.68,32.97,34.02c0.83,0.86,2.14,0.95,3.16,0.41c18.86-9.97,37.71-19.93,56.57-29.9
						c1.85-0.98,1.52-3.45,0-4.51c-13.56-9.39-27.11-18.77-40.67-28.16c-0.79-0.55-1.83-0.39-2.63,0
						c-16.29,8.01-32.57,16.03-48.86,24.04c-3.01,1.48-0.37,5.98,2.63,4.51c16.29-8.01,32.57-16.03,48.86-24.04
						c-0.88,0-1.76,0-2.63,0c13.56,9.39,27.11,18.77,40.67,28.16c0-1.5,0-3,0-4.51c-18.86,9.96-37.71,19.93-56.57,29.9
						c1.05,0.14,2.11,0.27,3.16,0.41c-10.99-11.34-21.98-22.68-32.97-34.02C679,866.25,675.31,869.94,677.65,872.35z"></path>
				</g>
			</g>
		</g>
		<g>
			<g>
				<polygon points="712.48,903.21 713.3,916.15 768.11,886.2 769.03,874.63" class="st39"></polygon>
			</g>
			<g>
				<g>
					<path d="M709.87,903.21c0.27,4.31,0.54,8.63,0.82,12.94c0.12,1.98,2.12,3.24,3.93,2.25c8.39-4.59,16.79-9.17,25.18-13.76
						c9.69-5.29,19.73-10.2,29.16-15.94c1.8-1.1,1.78-2.72,1.93-4.64c0.25-3.14,0.5-6.29,0.75-9.43c0.17-2.11-2.3-3.07-3.93-2.25
						c-16.53,8.36-33.07,16.72-49.6,25.07c-2.31,1.17-4.63,2.34-6.94,3.51c-3,1.52-0.36,6.02,2.63,4.51
						c16.53-8.36,33.07-16.72,49.6-25.07c2.31-1.17,4.63-2.34,6.94-3.51c-1.31-0.75-2.62-1.5-3.93-2.25
						c-0.31,3.86-0.61,7.71-0.92,11.57c0.43-0.75,0.86-1.5,1.29-2.25c-16.01,8.75-32.02,17.5-48.02,26.25
						c-2.26,1.24-4.52,2.47-6.79,3.71c1.31,0.75,2.62,1.5,3.93,2.25c-0.27-4.31-0.54-8.63-0.82-12.94
						C714.88,899.88,709.66,899.85,709.87,903.21z"></path>
				</g>
			</g>
		</g>
	</g>
	<g>
		<polygon points="695.44,865.51 724.26,894.25 734.16,889.17 704.22,861.22" class="st0"></polygon>
	</g>
</g>
<g>
	<path d="M129.51,145.16c-0.31,1.48-0.87,2.54-1.92,3.25c-14.16-3.65-25.83-4.12-34.86-1.36
		c-11.93,4.04-16.95,10-15.07,17.78c1.32,3.9,5.17,6.53,11.53,7.87c2.89,0.76,10.76,1.65,23.64,2.77
		c11.46,1.43,18.5,6.24,21.17,14.54c3.25,12.68-3.25,21.64-19.44,27.1c-10.69,3.15-21.13,1.28-31.42-5.83
		c-0.09-1.11,0.18-2.34,0.93-3.58c0.33-0.61,1.15-1.62,2.41-2.89c8.72,5.31,17.27,6.74,25.6,4.19c10.66-3.26,14.92-8.75,13.05-16.53
		c-1.74-5.67-7.41-8.88-17-9.61c-11.09-0.66-18.85-1.57-23.03-2.83c-8.72-2.02-14.1-6.32-16.12-12.92
		c-3.05-13.25,4.11-22.54,21.41-28.09c5.1-1.56,11.39-2.1,19.05-1.91c7.88,0.5,14.66,1.97,20.34,4.41
		C130.07,142.46,129.96,143.76,129.51,145.16z" class="st43"></path>
	<path d="M161.4,149.7c7.64-2.34,13.3-3.69,16.72-4.11c0.32,1.04,0.75,2.05,1.19,3.06c0.42,1.39,0.62,2.47,0.73,3.2
		c-0.62,0.44-2.64,1.31-5.92,2.57c-3.4,1.29-7,2.39-10.93,3.6c4.24,16.31,6.89,26.64,8.24,31.04c0.35,1.16,1.11,1.56,2.5,1.13
		c0.35-0.11,1.59-0.61,3.6-1.48c2.6-1.43,4.89-2.64,6.78-3.47c0.71,0.67,1.3,1.76,1.88,3.23c0.14,0.46,0.27,1.31,0.63,2.46
		c-3.58,3.63-8.12,6.16-13.44,7.79c-3.02,0.92-5.46,0.78-7.15-0.6c-1.32-0.99-2.38-2.82-3.2-5.48c-2.05-6.71-4.97-17.47-8.48-32.23
		c-4.05,1.24-7.86,2.03-11.52,2.51c-0.4-0.5-0.84-1.51-1.34-3.13c-0.39-1.28-0.59-2.35-0.65-3.35c4.06-1.62,7.93-3.06,11.63-4.19
		c-2.18-9.59-4.18-18.61-5.92-27.19c1.62-0.5,4.24-1.04,7.67-1.84C156.82,132.23,159.13,141.03,161.4,149.7z" class="st43"></path>
	<path d="M242.09,176.66c-1.14-2.05-2.53-4.54-3.99-7.64c-3.6,7.69-9.04,12.65-16.42,15.03
		c-8.34,2.55-15.06,2.08-19.99-1.6c-4.15-2.78-7.4-7.61-9.56-14.68c-1.95-6.37-2.96-15.43-2.78-27.26c2.73-0.59,5.14-0.56,7.24,0.06
		c0.69,10.93,1.91,19.04,3.47,24.14c1.56,5.1,3.65,8.63,6.33,10.35c3.31,2.54,7.7,2.83,13.03,1.2c6.48-1.99,11.39-6.65,14.9-14.19
		c-6.79-15.14-11.1-25.09-12.9-29.74c1.1-1.35,3.27-2.52,6.25-3.56c2.14,2.89,6.13,10.91,12.08,24.16
		c5.08,11.61,7.94,18.46,8.77,20.36C246.15,175.04,243.94,176.1,242.09,176.66z" class="st43"></path>
	<path d="M263.71,117.49c6.06-1.73,11.8-1.58,16.99,0.5c0.57,1.85,0.4,4.19-0.35,6.69c-5.5-0.59-10.11-0.33-13.88,0.58
		c-9.39,3.26-12.78,10.38-9.96,21.28c3.46,10.84,10.33,14.69,20.67,11.66c2.54-0.78,6.13-3.14,10.52-7.02
		c0.98,0.71,1.8,1.35,2.28,2.09c0.44,0.62,1.18,1.79,2.21,3.5c-3.33,4.82-7.58,7.9-12.56,9.42c-15.61,4.4-26.06-1.14-31.42-16.6
		C243.9,133.43,249.11,122.72,263.71,117.49z M306.52,157.19c-0.67,0.71-1.75,1.3-3.15,1.72c-1.73,0.53-3.04,0.8-3.84,0.67
		c-1.27-1.26-5.28-13.08-12.12-35.42c-7.94-25.94-11.9-39.67-11.74-41.24c1.43-0.69,2.52-1.28,3.45-1.56
		c0.81-0.25,2.01-0.48,3.69-0.75c1.52,3.33,6.27,17.58,14,42.82C302.49,141.96,305.69,153.26,306.52,157.19z" class="st43"></path>
	<path d="M346.5,134.81c-4.88,19.61-8.48,32.23-10.88,38.04c-3,0.16-5.35-0.52-6.88-2.2
		c1.36-5.48,3.63-15.04,6.87-28.44c-10.09-7.3-21.35-18.03-33.99-32.02c1.82-2.33,3.43-4.09,4.84-5.28
		c15.45,14.9,25.94,24.35,31.47,28.36c4.01-16.68,7.15-30.43,9.41-41.25c2.68-0.31,4.86,0.16,6.68,1.13
		C354.45,96.67,352,110.59,346.5,134.81z" class="st43"></path>
	<path d="M420.69,69.42c2.04,10.39,2.94,17.46,2.73,21.33c-1.36,0.54-2.28,0.82-2.75,0.96
		c-0.93,0.28-2.35,0.6-4.31,0.82c-0.94-2.24-1.47-3.98-1.83-5.14c-4.92-16.09-8.08-30.96-9.28-44.78c1.17-0.35,2.29-0.82,3.21-1.11
		c1.39-0.43,3.11-0.57,4.91-0.49c0.78,2.55,1.43,4.24,1.75,5.29C417.04,52.55,418.92,60.33,420.69,69.42z M433.11,112.47
		c-0.46,3.44-0.86,5.84-1.39,7.01c-5.22,0.33-9.8-0.17-13.94-1.68c-0.42-3.04,0.11-7.51,1.48-13.37c3.43-0.79,7.98-0.42,13.8,1.22
		C433.44,106.92,433.38,109.22,433.11,112.47z" class="st43"></path>
</g>
</svg>
